<svg version="1.1" id="Layer_1" xmlns="http://www.w3.org/2000/svg" xmlns:xlink="http://www.w3.org/1999/xlink" x="0px" y="0px"
	 width="100%" viewBox="0 0 281 302" enable-background="new 0 0 281 302" xml:space="preserve">
<path fill="#000000" opacity="1.000000" stroke="none" 
	d="
M282.000000,109.000000 
	C282.000000,173.972336 282.000000,238.444687 282.000000,302.958496 
	C188.401169,302.958496 94.802315,302.958496 1.101732,302.958496 
	C1.101732,202.444412 1.101732,101.888687 1.101732,1.166480 
	C94.666428,1.166480 188.333191,1.166480 282.000000,1.166480 
	C282.000000,36.864223 282.000000,72.682114 282.000000,109.000000 
M6.971610,112.736946 
	C7.024587,113.480049 7.077563,114.223152 6.975062,115.716278 
	C7.025431,116.476860 7.075800,117.237434 6.966345,118.911324 
	C7.013158,122.948463 7.059970,126.985611 6.952585,131.945847 
	C6.935286,141.176575 6.871184,150.407700 6.947537,159.637665 
	C6.960016,161.146103 7.592090,162.649445 7.894514,165.035141 
	C7.952087,167.690475 8.009659,170.345795 7.923905,173.920593 
	C7.988902,178.278625 8.053898,182.636673 7.976177,187.923187 
	C7.962676,194.252884 7.702261,200.597092 8.072844,206.904221 
	C8.198441,209.041809 9.918289,211.085754 11.219561,213.786423 
	C18.117933,217.263077 25.016304,220.739731 32.357353,224.737381 
	C38.948387,227.859970 45.544205,230.972534 52.128101,234.110123 
	C54.770203,235.369263 57.386086,236.683426 60.638569,238.290100 
	C65.397171,240.597229 70.155769,242.904343 75.360809,245.727051 
	C80.587929,248.115509 85.815048,250.503967 91.649742,253.225037 
	C97.325775,256.190491 102.950790,259.259552 108.694466,262.087616 
	C113.044846,264.229706 117.546547,266.064423 122.340057,268.622681 
	C126.185135,271.126404 130.030212,273.630157 134.226242,276.712128 
	C134.565323,277.074188 134.855316,277.504669 135.250671,277.788300 
	C145.733505,285.308411 156.187454,292.870697 166.787521,300.222260 
	C167.730515,300.876251 169.635773,300.142731 171.722397,299.674469 
	C174.434586,291.781372 177.146774,283.888306 180.011703,275.224121 
	C181.371567,270.500336 182.731430,265.776520 184.730194,260.773743 
	C188.821976,258.462036 192.913757,256.150299 197.694031,253.753952 
	C202.472061,250.879623 207.250092,248.005295 212.750381,245.012100 
	C215.516632,243.379272 218.282867,241.746460 221.750839,240.014282 
	C223.525314,239.056259 225.299805,238.098236 227.799011,237.066452 
	C230.893509,235.058792 233.988007,233.051132 237.811829,230.972183 
	C241.894379,228.688614 245.976929,226.405045 250.789261,224.017822 
	C256.877289,220.716507 262.965332,217.415192 269.711792,213.793121 
	C271.120544,211.493439 273.387421,209.319534 273.747009,206.866089 
	C274.363525,202.659485 273.787994,198.278168 273.865723,193.049881 
	C273.809875,187.694458 273.754028,182.339035 273.863129,176.064178 
	C273.805969,170.702896 273.748810,165.341629 273.860809,159.107162 
	C273.805084,156.732895 273.749390,154.358627 273.862122,151.062668 
	C273.806946,142.704758 273.751770,134.346832 273.867249,125.071594 
	C273.937012,120.060883 274.006775,115.050171 274.824158,109.615639 
	C274.526947,99.307144 274.282776,88.996628 273.890472,78.691757 
	C273.805786,76.466942 273.187592,74.262436 272.823730,71.328316 
	C270.244507,70.208420 267.665283,69.088524 264.779205,67.327179 
	C262.883484,66.537910 260.987762,65.748634 258.771027,64.314064 
	C252.555908,61.192101 246.340805,58.070145 239.809540,54.285507 
	C235.577835,52.176823 231.346146,50.068138 226.776703,47.321217 
	C224.891617,46.415459 223.037323,45.437477 221.115219,44.618584 
	C216.759766,42.762985 212.370895,40.985783 207.389389,38.903763 
	C206.608322,38.569832 205.827271,38.235897 204.761307,37.286366 
	C203.521667,36.820194 202.282013,36.354019 200.751663,35.274773 
	C199.517349,34.812832 198.283020,34.350891 196.737640,33.262558 
	C194.842163,32.471485 192.946701,31.680414 190.729904,30.253029 
	C189.438583,29.614527 188.150177,28.970003 186.855423,28.338549 
	C180.574402,25.275276 174.291641,22.215500 167.430252,18.912642 
	C166.611282,18.338503 165.792328,17.764364 164.217346,17.019718 
	C163.490234,16.770142 162.696640,16.634262 162.046066,16.253805 
	C153.310364,11.145136 145.010483,4.851508 133.436142,6.084802 
	C133.230179,6.362035 133.024231,6.639269 132.396835,6.954778 
	C132.396835,6.954778 132.020142,7.147564 131.308228,7.194496 
	C130.674881,7.713392 130.112656,8.376309 129.397461,8.729455 
	C119.614120,13.560238 109.809669,18.348228 99.301857,23.202599 
	C93.857903,25.846375 88.413940,28.490149 82.275101,31.219213 
	C75.182350,34.862072 68.089607,38.504929 60.290337,42.204556 
	C52.866783,45.844807 45.443233,49.485054 37.314327,53.181683 
	C27.479094,58.442028 17.643860,63.702370 7.255586,69.182625 
	C7.120930,69.752136 6.986274,70.321655 6.115804,71.371651 
	C6.046512,80.811661 5.950789,90.251671 5.953777,99.691658 
	C5.954041,100.524315 6.599427,101.356766 6.927845,102.800995 
	C6.997962,103.201096 7.068078,103.601196 6.974173,104.879562 
	C7.028044,107.255104 7.081915,109.630638 6.971610,112.736946 
z"/>
<path fill="#254699" opacity="1.000000" stroke="none" 
	d="
M74.914368,245.211472 
	C70.155769,242.904343 65.397171,240.597229 60.331551,237.748169 
	C60.283058,232.441422 64.278130,232.811554 67.294235,232.113266 
	C72.060249,231.009796 76.896637,230.208328 81.707245,229.300278 
	C84.133591,228.842285 86.568733,228.430923 89.295120,227.917755 
	C90.059921,227.224884 90.529503,226.612747 91.385689,225.995728 
	C94.181732,225.326843 96.591171,224.662811 99.409851,223.919434 
	C105.073601,223.334427 110.469460,223.417252 115.552208,222.196442 
	C125.127098,219.896713 135.175003,219.079590 143.910110,213.742447 
	C145.432388,212.812347 147.774353,213.223785 149.794739,213.449829 
	C149.829071,215.924973 149.806381,217.965927 149.441574,220.029190 
	C148.045609,220.741730 146.701981,221.211670 145.983490,222.156845 
	C139.912933,230.142349 132.207291,235.101486 122.031975,236.164429 
	C119.945503,236.382401 118.007202,238.018692 115.563354,239.000870 
	C101.722191,241.070847 88.318275,243.141159 74.914368,245.211472 
z"/>
<path fill="#3341A3" opacity="1.000000" stroke="none" 
	d="
M31.914677,224.216385 
	C25.016304,220.739731 18.117933,217.263077 11.312304,213.198151 
	C13.325903,211.745392 15.242837,210.144485 17.168243,210.134232 
	C31.173672,210.059647 44.481319,206.937729 57.396374,201.744507 
	C59.236019,201.004791 61.250732,200.063232 63.131416,200.167847 
	C74.037750,200.774551 84.617264,199.235062 94.998352,196.411072 
	C94.332794,199.546875 93.666702,202.272827 92.648941,205.062775 
	C90.930336,205.727997 89.329094,206.051544 88.234329,206.975327 
	C80.881241,213.179993 71.996376,214.910004 62.857803,216.184067 
	C60.815350,216.468842 58.858315,217.719513 56.978069,218.739532 
	C53.275986,220.747849 49.655289,222.906174 45.625599,225.002060 
	C44.499615,225.002136 43.748959,225.002594 42.671066,225.015244 
	C41.563610,225.350418 40.783390,225.673386 39.654037,225.933197 
	C36.841492,225.318817 34.378086,224.767609 31.914677,224.216385 
z"/>
<path fill="#4ADDD8" opacity="1.000000" stroke="none" 
	d="
M273.696625,125.988914 
	C273.751770,134.346832 273.806946,142.704758 273.428497,151.549225 
	C271.745026,152.767563 270.575378,153.767334 269.227264,154.170685 
	C267.000763,154.836853 263.977173,156.263123 262.479309,155.371140 
	C254.253174,150.472305 244.674576,150.942352 235.690308,147.980133 
	C235.157852,147.941971 234.944962,147.925522 234.704376,147.450256 
	C234.556351,142.372849 234.911835,137.682053 234.223969,133.149597 
	C232.372513,120.950089 226.171494,110.893852 218.066681,101.820496 
	C223.883682,98.671333 229.429123,95.762962 234.980133,93.291786 
	C234.386139,101.054291 238.753128,106.145500 242.848328,111.394287 
	C244.029709,112.908447 245.512054,114.568321 245.792297,116.330605 
	C246.507660,120.829033 246.632492,125.422157 246.976730,129.978668 
	C247.607040,138.321381 253.129211,142.959915 259.895081,146.274384 
	C264.186768,148.376801 267.428314,146.654678 268.694489,142.030869 
	C269.474091,139.184067 269.415283,136.116211 270.073059,133.224991 
	C270.676575,130.572052 269.498016,126.883377 273.696625,125.988914 
z"/>
<path fill="#51DED9" opacity="1.000000" stroke="none" 
	d="
M273.781921,125.530258 
	C269.498016,126.883377 270.676575,130.572052 270.073059,133.224991 
	C269.415283,136.116211 269.474091,139.184067 268.694489,142.030869 
	C267.428314,146.654678 264.186768,148.376801 259.895081,146.274384 
	C253.129211,142.959915 247.607040,138.321381 246.976730,129.978668 
	C246.632492,125.422157 246.507660,120.829033 245.792297,116.330605 
	C245.512054,114.568321 244.029709,112.908447 242.848328,111.394287 
	C238.753128,106.145500 234.386139,101.054291 235.206314,93.057098 
	C237.945175,90.873436 240.463409,89.361656 242.985962,88.285721 
	C243.380798,94.567955 243.840317,100.286880 249.457169,104.042885 
	C252.870880,106.325653 256.041809,109.003189 259.154144,111.697083 
	C263.150696,115.156311 267.152283,115.025482 270.023834,110.714409 
	C271.390900,108.662018 272.356445,108.115662 274.076538,110.039459 
	C274.006775,115.050171 273.937012,120.060883 273.781921,125.530258 
z"/>
<path fill="#2898CF" opacity="1.000000" stroke="none" 
	d="
M149.783676,220.006866 
	C149.806381,217.965927 149.829071,215.924973 149.859940,213.009674 
	C149.843887,209.773041 149.819656,207.410751 150.159393,205.167511 
	C152.072403,205.011719 153.621414,204.736908 155.560471,204.378387 
	C157.012650,204.298386 158.074783,204.302109 159.116867,204.720306 
	C160.567215,211.030273 163.220459,212.410049 170.522095,211.444061 
	C170.054596,216.411850 169.527512,220.980881 168.922699,226.223572 
	C171.591431,224.203522 173.794952,222.535599 175.999329,221.313675 
	C175.417572,229.235992 178.689789,235.095047 183.723038,240.227905 
	C188.161423,244.754135 192.578857,249.300888 197.005539,253.838577 
	C192.913757,256.150299 188.821976,258.462036 184.063293,260.901428 
	C182.932602,261.031464 182.468781,261.033813 181.979538,260.677490 
	C176.332855,253.742691 170.787125,247.099930 165.063995,240.613724 
	C161.209656,236.245438 157.181885,231.926422 150.262527,233.520416 
	C150.036728,228.713638 149.910202,224.360260 149.783676,220.006866 
z"/>
<path fill="#3A40A9" opacity="1.000000" stroke="none" 
	d="
M94.997826,196.001205 
	C84.617264,199.235062 74.037750,200.774551 63.131416,200.167847 
	C61.250732,200.063232 59.236019,201.004791 57.396374,201.744507 
	C44.481319,206.937729 31.173672,210.059647 17.168243,210.134232 
	C15.242837,210.144485 13.325903,211.745392 11.157323,212.891174 
	C9.918289,211.085754 8.198441,209.041809 8.072844,206.904221 
	C7.702261,200.597092 7.962676,194.252884 8.262040,187.465149 
	C8.547904,187.007126 8.976938,187.019836 8.981792,187.486176 
	C8.993370,192.272888 8.959786,196.593796 9.017093,200.913483 
	C9.087617,206.229599 10.444493,207.054672 15.409578,204.770477 
	C17.974487,203.590500 20.469242,202.258026 23.332609,200.975052 
	C24.446388,200.303894 25.223251,199.652145 26.000057,199.000198 
	C26.000000,199.000000 26.000263,199.000000 26.379797,198.979889 
	C34.501698,196.779724 42.429131,195.097702 49.943935,192.305267 
	C61.822350,187.891281 73.851868,185.162949 86.574196,185.826431 
	C87.414658,185.870285 88.300522,185.043549 89.485970,184.758301 
	C93.205078,187.261642 96.603485,189.628403 99.911911,192.312195 
	C98.213890,193.753235 96.605858,194.877213 94.997826,196.001205 
z"/>
<path fill="#27C1CC" opacity="1.000000" stroke="none" 
	d="
M250.059479,224.121490 
	C245.976929,226.405045 241.894379,228.688614 237.155457,230.821442 
	C236.369751,230.565933 236.194229,230.487411 236.117676,230.352676 
	C228.186737,216.392242 218.590714,203.661835 207.819458,191.779251 
	C207.146240,191.036560 207.237778,189.600601 207.174225,188.251648 
	C211.515015,184.655350 215.655106,181.294586 220.063080,178.151550 
	C222.382507,180.493591 224.701599,182.420776 226.437927,184.777328 
	C232.971252,193.644424 239.672287,202.425369 245.548187,211.720459 
	C247.806183,215.292374 252.248810,218.692780 250.059479,224.121490 
z"/>
<path fill="#5BE0DC" opacity="1.000000" stroke="none" 
	d="
M274.450317,109.827545 
	C272.356445,108.115662 271.390900,108.662018 270.023834,110.714409 
	C267.152283,115.025482 263.150696,115.156311 259.154144,111.697083 
	C256.041809,109.003189 252.870880,106.325653 249.457169,104.042885 
	C243.840317,100.286880 243.380798,94.567955 243.215302,88.050461 
	C246.789841,85.245659 250.139328,83.111938 253.682556,80.933792 
	C254.240509,80.733711 254.604706,80.578056 255.327362,80.295868 
	C259.523499,78.114159 263.361176,76.058998 267.524506,73.936935 
	C269.505127,73.262878 271.160156,72.655724 272.815125,72.048569 
	C273.187592,74.262436 273.805786,76.466942 273.890472,78.691757 
	C274.282776,88.996628 274.526947,99.307144 274.450317,109.827545 
z"/>
<path fill="#5241BC" opacity="1.000000" stroke="none" 
	d="
M8.976938,187.019836 
	C8.976938,187.019836 8.547904,187.007126 8.333399,187.000916 
	C8.053898,182.636673 7.988902,178.278625 8.400084,173.453796 
	C19.718857,170.437454 30.592321,168.297623 41.850540,168.824677 
	C44.064926,168.928345 46.395462,167.919540 48.575077,167.148590 
	C56.063034,164.499969 63.507767,161.729141 71.189491,159.283722 
	C73.002251,163.022415 74.594490,166.482285 75.789505,169.961182 
	C72.596367,170.988693 69.800446,171.997177 66.617767,173.025787 
	C60.824978,175.467133 55.385567,177.817200 50.023945,180.333054 
	C46.052841,182.196426 42.344902,185.848282 37.605068,182.940292 
	C33.790482,180.599960 30.161268,180.802277 26.159824,182.064941 
	C20.476896,183.858231 14.708699,185.381302 8.976938,187.019836 
z"/>
<path fill="#27C9CA" opacity="1.000000" stroke="none" 
	d="
M250.424377,224.069656 
	C252.248810,218.692780 247.806183,215.292374 245.548187,211.720459 
	C239.672287,202.425369 232.971252,193.644424 226.437927,184.777328 
	C224.701599,182.420776 222.382507,180.493591 220.191879,177.848511 
	C221.361435,175.883011 222.670090,174.438293 224.267944,173.161926 
	C235.706024,181.889511 246.854889,190.448715 258.099548,199.331894 
	C263.372101,203.305557 268.224640,207.198761 269.053375,214.113861 
	C262.965332,217.415192 256.877289,220.716507 250.424377,224.069656 
z"/>
<path fill="#31D3CD" opacity="1.000000" stroke="none" 
	d="
M258.003754,199.007935 
	C246.854889,190.448715 235.706024,181.889511 224.363037,172.831909 
	C226.302444,168.945938 228.435974,165.558380 230.736572,162.527145 
	C234.962387,166.423111 238.714066,170.430435 243.174194,173.358719 
	C246.938980,175.830490 251.740829,176.671570 255.695755,178.917496 
	C260.991180,181.924652 265.752655,183.248230 270.520447,178.160141 
	C271.211365,177.422806 272.621094,177.359070 273.698181,176.983612 
	C273.754028,182.339035 273.809875,187.694458 273.442932,193.537415 
	C272.165985,194.479095 270.912537,194.712982 270.521149,195.422440 
	C267.509338,200.882111 262.960358,200.571106 258.003754,199.007935 
z"/>
<path fill="#6F45D1" opacity="1.000000" stroke="none" 
	d="
M7.106781,131.022751 
	C7.059970,126.985611 7.013158,122.948463 7.472843,118.454559 
	C11.438504,117.709618 15.199048,116.401680 18.302019,117.318733 
	C28.882669,120.445732 38.506115,116.963478 48.473133,114.541656 
	C54.675446,113.034592 61.179688,112.601089 67.581123,112.153946 
	C70.774124,111.930908 74.040573,112.759224 77.226501,113.458656 
	C75.998055,115.919830 74.816902,118.034325 73.161743,120.119301 
	C67.255310,121.334885 61.239742,121.498497 56.510895,124.048370 
	C46.412472,129.493622 35.717739,129.071030 25.099953,128.688171 
	C19.499468,128.486237 14.296216,127.145744 10.344868,132.493515 
	C9.986139,132.979019 8.791365,132.846771 7.939705,132.727798 
	C7.631977,131.977051 7.369378,131.499908 7.106781,131.022751 
z"/>
<path fill="#1C3E8B" opacity="1.000000" stroke="none" 
	d="
M121.980911,268.035919 
	C117.546547,266.064423 113.044846,264.229706 108.694466,262.087616 
	C102.950790,259.259552 97.325775,256.190491 91.640488,252.838577 
	C99.935265,251.301361 108.259766,250.279678 116.538254,248.967682 
	C127.257286,247.268890 138.848663,248.911026 148.333755,240.996933 
	C149.116058,240.997925 149.563095,240.997711 150.046844,241.424225 
	C150.202408,243.553024 150.321213,245.255142 150.341370,247.413666 
	C150.136765,251.582458 150.030807,255.294815 149.577362,258.890045 
	C147.384872,258.193848 145.306915,256.754639 143.734207,257.180664 
	C135.801544,259.329407 126.680954,259.359344 121.980911,268.035919 
z"/>
<path fill="#5942C1" opacity="1.000000" stroke="none" 
	d="
M70.968979,159.004883 
	C63.507767,161.729141 56.063034,164.499969 48.575077,167.148590 
	C46.395462,167.919540 44.064926,168.928345 41.850540,168.824677 
	C30.592321,168.297623 19.718857,170.437454 8.471747,172.994080 
	C8.009659,170.345795 7.952087,167.690475 7.927435,164.117615 
	C7.972918,157.467941 7.985480,151.735779 8.232137,146.343460 
	C8.817331,151.652283 9.168431,156.621246 9.530719,161.748566 
	C14.028401,160.287888 17.677698,158.564789 21.503740,157.960220 
	C33.375591,156.084320 45.308804,154.588699 57.230865,153.043213 
	C61.094982,152.542282 64.998169,152.342743 69.069901,152.320145 
	C69.827194,154.758255 70.398087,156.881577 70.968979,159.004883 
z"/>
<path fill="#AA36EA" opacity="1.000000" stroke="none" 
	d="
M7.808625,68.962715 
	C17.643860,63.702370 27.479094,58.442028 37.815750,53.473312 
	C40.071186,58.837097 43.170685,60.546730 49.348515,61.071777 
	C57.589146,61.772144 65.784645,63.003529 73.728905,64.234299 
	C66.193344,67.134438 59.307281,70.641037 50.940578,69.354652 
	C45.045162,68.448212 42.776649,72.078819 43.512123,78.397560 
	C41.539780,77.881233 39.976276,77.390724 38.384525,77.022278 
	C30.916267,75.293579 23.440239,73.598450 15.733139,71.647362 
	C14.004782,70.935730 12.510269,70.468063 10.752934,69.774796 
	C9.596282,69.353699 8.702454,69.158203 7.808625,68.962715 
z"/>
<path fill="#3CD7D1" opacity="1.000000" stroke="none" 
	d="
M273.780670,176.523895 
	C272.621094,177.359070 271.211365,177.422806 270.520447,178.160141 
	C265.752655,183.248230 260.991180,181.924652 255.695755,178.917496 
	C251.740829,176.671570 246.938980,175.830490 243.174194,173.358719 
	C238.714066,170.430435 234.962387,166.423111 230.798157,162.189178 
	C232.039124,156.966293 233.385605,152.437668 234.732071,147.909058 
	C234.944962,147.925522 235.157852,147.941971 235.706085,148.348846 
	C236.899902,150.490219 237.304901,152.845123 238.694595,153.888657 
	C245.047989,158.659485 251.507233,163.338547 258.263855,167.506927 
	C263.295135,170.610886 266.310822,169.294937 269.440948,164.263794 
	C270.476776,162.598892 272.253632,161.395020 273.691620,159.980347 
	C273.748810,165.341629 273.805969,170.702896 273.780670,176.523895 
z"/>
<path fill="#29A2D1" opacity="1.000000" stroke="none" 
	d="
M197.349792,253.796265 
	C192.578857,249.300888 188.161423,244.754135 183.723038,240.227905 
	C178.689789,235.095047 175.417572,229.235992 176.140839,221.016724 
	C178.678711,218.208084 181.075943,216.142410 183.577423,214.491013 
	C185.021881,217.330338 186.029663,220.032074 187.770554,222.123611 
	C191.560730,226.677109 196.253662,230.555252 199.584961,235.392990 
	C202.837769,240.116730 206.696503,243.391815 212.028107,245.130951 
	C207.250092,248.005295 202.472061,250.879623 197.349792,253.796265 
z"/>
<path fill="#28B9CD" opacity="1.000000" stroke="none" 
	d="
M206.973511,188.487198 
	C207.237778,189.600601 207.146240,191.036560 207.819458,191.779251 
	C218.590714,203.661835 228.186737,216.392242 236.117676,230.352676 
	C236.194229,230.487411 236.369751,230.565933 236.790787,230.857071 
	C233.988007,233.051132 230.893509,235.058792 227.262619,236.801270 
	C221.086823,228.228378 215.512939,219.875168 209.783920,211.629730 
	C206.244217,206.535263 202.468323,201.604889 198.853775,196.266342 
	C201.597214,193.450287 204.285355,190.968735 206.973511,188.487198 
z"/>
<path fill="#B138EF" opacity="1.000000" stroke="none" 
	d="
M73.999527,64.006836 
	C65.784645,63.003529 57.589146,61.772144 49.348515,61.071777 
	C43.170685,60.546730 40.071186,58.837097 38.168430,53.445126 
	C45.443233,49.485054 52.866783,45.844807 60.650459,42.548676 
	C62.209610,44.691158 63.012669,47.321926 64.688049,48.118889 
	C68.463242,49.914703 72.604416,51.503624 76.717552,51.890076 
	C82.390900,52.423126 84.369301,57.183212 87.764481,60.223915 
	C86.342804,60.958370 85.170349,61.483124 83.608566,62.027489 
	C80.146004,62.700348 77.072769,63.353592 73.999527,64.006836 
z"/>
<path fill="#204392" opacity="1.000000" stroke="none" 
	d="
M147.998474,240.995728 
	C138.848663,248.911026 127.257286,247.268890 116.538254,248.967682 
	C108.259766,250.279678 99.935265,251.301361 91.336700,252.672272 
	C85.815048,250.503967 80.587929,248.115509 75.137589,245.469269 
	C88.318275,243.141159 101.722191,241.070847 115.770172,239.295776 
	C118.641052,239.589188 120.870033,239.649353 123.094147,239.571182 
	C126.538673,239.450073 130.511429,238.076111 133.288757,239.350525 
	C136.809021,240.965851 139.329117,241.103958 142.386047,239.132309 
	C144.907806,237.505814 147.082855,237.502777 147.998474,240.995728 
z"/>
<path fill="#29B1CF" opacity="1.000000" stroke="none" 
	d="
M198.798462,196.600830 
	C202.468323,201.604889 206.244217,206.535263 209.783920,211.629730 
	C215.512939,219.875168 221.086823,228.228378 226.900269,236.838135 
	C225.299805,238.098236 223.525314,239.056259 221.174942,239.910950 
	C219.630173,239.304230 218.457031,239.004089 217.723343,238.266678 
	C208.018585,228.512726 198.375610,218.697327 188.879944,208.596420 
	C192.294617,204.397339 195.546539,200.499084 198.798462,196.600830 
z"/>
<path fill="#2B449E" opacity="1.000000" stroke="none" 
	d="
M42.998306,225.003052 
	C43.748959,225.002594 44.499615,225.002136 45.774307,225.354797 
	C49.118736,225.992340 52.077980,226.964798 54.732834,226.429016 
	C61.988960,224.964584 69.106613,222.823593 76.299477,221.032349 
	C80.277672,220.041656 84.651138,219.924545 88.212868,218.145340 
	C93.331451,215.588425 98.447144,214.598206 103.931915,215.339142 
	C102.243370,218.451782 100.621994,221.225281 99.000610,223.998779 
	C96.591171,224.662811 94.181732,225.326843 91.090637,226.076721 
	C89.939293,226.774551 89.469597,227.386520 88.999901,227.998489 
	C86.568733,228.430923 84.133591,228.842285 81.707245,229.300278 
	C76.896637,230.208328 72.060249,231.009796 67.294235,232.113266 
	C64.278130,232.811554 60.283058,232.441422 60.019218,237.589386 
	C57.386086,236.683426 54.770203,235.369263 52.128101,234.110123 
	C45.544205,230.972534 38.948387,227.859970 32.136017,224.476883 
	C34.378086,224.767609 36.841492,225.318817 39.880867,226.127090 
	C41.303993,225.923782 42.151150,225.463425 42.998306,225.003052 
z"/>
<path fill="#7545D4" opacity="1.000000" stroke="none" 
	d="
M77.273796,113.111977 
	C74.040573,112.759224 70.774124,111.930908 67.581123,112.153946 
	C61.179688,112.601089 54.675446,113.034592 48.473133,114.541656 
	C38.506115,116.963478 28.882669,120.445732 18.302019,117.318733 
	C15.199048,116.401680 11.438504,117.709618 7.552755,117.997910 
	C7.075800,117.237434 7.025431,116.476860 7.241927,115.088333 
	C7.673266,113.641273 7.837740,112.822166 8.001421,111.667114 
	C8.004715,110.883278 8.008802,110.435379 8.416845,109.985497 
	C11.213998,109.655251 13.607195,109.326988 16.308336,109.223618 
	C19.859993,109.691628 23.213657,110.587593 26.328079,110.063057 
	C38.755585,107.970001 51.182438,105.947258 63.816467,107.074463 
	C70.107132,107.635704 76.310638,110.392624 82.457626,107.547012 
	C80.624077,109.607101 78.948936,111.359535 77.273796,113.111977 
z"/>
<path fill="#C34AF3" opacity="1.000000" stroke="none" 
	d="
M100.010406,23.146748 
	C109.809669,18.348228 119.614120,13.560238 129.397461,8.729455 
	C130.112656,8.376309 130.674881,7.713392 131.806763,7.467149 
	C132.439651,8.375305 132.887634,9.411968 132.662643,9.587880 
	C126.379410,14.500381 131.283264,17.562363 134.416946,21.003859 
	C135.153137,21.812353 135.481720,22.992001 135.765350,24.246708 
	C132.381409,27.376514 128.913574,28.870008 124.419472,29.257645 
	C118.880470,29.735407 113.468460,31.685400 107.631165,32.980011 
	C101.269112,32.330498 101.549919,27.066225 100.010406,23.146748 
z"/>
<path fill="#29AAD0" opacity="1.000000" stroke="none" 
	d="
M188.717194,208.897247 
	C198.375610,218.697327 208.018585,228.512726 217.723343,238.266678 
	C218.457031,239.004089 219.630173,239.304230 220.824066,239.960632 
	C218.282867,241.746460 215.516632,243.379272 212.389252,245.071533 
	C206.696503,243.391815 202.837769,240.116730 199.584961,235.392990 
	C196.253662,230.555252 191.560730,226.677109 187.770554,222.123611 
	C186.029663,220.032074 185.021881,217.330338 183.747879,214.240723 
	C185.448471,212.016510 187.082840,210.456879 188.717194,208.897247 
z"/>
<path fill="#C754F5" opacity="1.000000" stroke="none" 
	d="
M135.997818,24.000896 
	C135.481720,22.992001 135.153137,21.812353 134.416946,21.003859 
	C131.283264,17.562363 126.379410,14.500381 132.662643,9.587880 
	C132.887634,9.411968 132.439651,8.375305 132.162720,7.443683 
	C132.020142,7.147564 132.396835,6.954778 132.824463,6.843796 
	C133.528183,6.574582 133.768326,6.373426 133.972534,6.129347 
	C145.010483,4.851508 153.310364,11.145136 162.046066,16.253805 
	C162.696640,16.634262 163.490234,16.770142 164.576080,17.465576 
	C163.771606,19.152185 162.799057,21.152884 161.411850,21.500969 
	C155.677246,22.939913 149.817078,23.878471 143.637482,24.843224 
	C140.847198,24.457354 138.422516,24.229126 135.997818,24.000896 
z"/>
<path fill="#B63EF1" opacity="1.000000" stroke="none" 
	d="
M88.013695,60.014217 
	C84.369301,57.183212 82.390900,52.423126 76.717552,51.890076 
	C72.604416,51.503624 68.463242,49.914703 64.688049,48.118889 
	C63.012669,47.321926 62.209610,44.691158 61.003719,42.520287 
	C68.089607,38.504929 75.182350,34.862072 82.606491,31.541393 
	C81.516327,33.432777 80.094780,35.001984 78.166412,37.130653 
	C82.034538,39.049355 86.016808,41.024673 90.026154,43.415329 
	C90.703262,48.884403 91.353310,53.938137 92.001038,59.242439 
	C91.998268,59.660053 91.997833,59.827106 91.598846,59.994736 
	C90.138092,60.001614 89.075897,60.007915 88.013695,60.014217 
z"/>
<path fill="#173988" opacity="1.000000" stroke="none" 
	d="
M122.160484,268.329285 
	C126.680954,259.359344 135.801544,259.329407 143.734207,257.180664 
	C145.306915,256.754639 147.384872,258.193848 149.615356,259.356567 
	C149.897827,266.286926 149.794800,272.633636 149.296463,278.978760 
	C146.672958,278.524933 144.449509,278.047394 142.215332,277.626862 
	C139.439972,277.104553 136.655701,276.629425 133.875290,276.133911 
	C130.030212,273.630157 126.185135,271.126404 122.160484,268.329285 
z"/>
<path fill="#45DAD3" opacity="1.000000" stroke="none" 
	d="
M273.776215,159.543762 
	C272.253632,161.395020 270.476776,162.598892 269.440948,164.263794 
	C266.310822,169.294937 263.295135,170.610886 258.263855,167.506927 
	C251.507233,163.338547 245.047989,158.659485 238.694595,153.888657 
	C237.304901,152.845123 236.899902,150.490219 236.025650,148.370544 
	C244.674576,150.942352 254.253174,150.472305 262.479309,155.371140 
	C263.977173,156.263123 267.000763,154.836853 269.227264,154.170685 
	C270.575378,153.767334 271.745026,152.767563 273.344299,152.010071 
	C273.749390,154.358627 273.805084,156.732895 273.776215,159.543762 
z"/>
<path fill="#2A75CE" opacity="1.000000" stroke="none" 
	d="
M179.858978,275.995239 
	C177.146774,283.888306 174.434586,291.781372 171.063629,299.787109 
	C164.594070,292.616394 158.783295,285.333038 153.156937,277.759460 
	C155.558456,276.306488 157.775574,275.143738 160.132721,274.328888 
	C162.247452,274.934662 164.215302,275.313385 166.198257,275.426056 
	C170.747925,275.684723 175.304947,275.813660 179.858978,275.995239 
z"/>
<path fill="#BC44F1" opacity="1.000000" stroke="none" 
	d="
M89.999084,42.999992 
	C86.016808,41.024673 82.034538,39.049355 78.166412,37.130653 
	C80.094780,35.001984 81.516327,33.432777 82.953934,31.498749 
	C88.413940,28.490149 93.857903,25.846375 99.656128,23.174671 
	C101.549919,27.066225 101.269112,32.330498 107.695450,33.314159 
	C108.753014,35.111568 109.375900,36.555691 109.576538,38.000023 
	C102.769226,39.666817 96.384155,41.333405 89.999084,42.999992 
z"/>
<path fill="#7E43DA" opacity="1.000000" stroke="none" 
	d="
M7.138193,104.001297 
	C7.068078,103.601196 6.997962,103.201096 6.961630,102.093376 
	C7.026002,100.581253 7.056590,99.776756 7.322754,98.983734 
	C7.558330,98.995224 8.030941,99.002136 8.383720,98.935738 
	C12.743945,97.425209 15.763686,93.964188 21.170080,95.577530 
	C25.447599,96.854004 30.559349,95.884964 35.201393,95.220116 
	C39.088726,94.663361 42.853909,93.170860 46.629425,91.956642 
	C48.162552,91.463577 49.579834,90.610306 51.437878,89.948463 
	C56.586296,91.959511 61.346661,93.943031 65.822357,96.166199 
	C63.724541,96.758743 61.662586,97.849342 60.141502,97.336311 
	C53.703659,95.164955 47.387959,95.294838 41.239914,97.828346 
	C34.101711,100.769882 26.967009,102.487877 19.124680,101.354607 
	C17.079130,101.059021 14.644374,102.974564 12.490120,104.073952 
	C10.913914,104.878342 9.504233,106.009048 8.006090,106.673813 
	C7.707300,105.569313 7.422747,104.785309 7.138193,104.001297 
z"/>
<path fill="#BA69F3" opacity="1.000000" stroke="none" 
	d="
M168.009506,19.154486 
	C174.291641,22.215500 180.574402,25.275276 186.855423,28.338549 
	C188.150177,28.970003 189.438583,29.614527 190.693588,30.872772 
	C186.439056,33.330910 182.220825,35.169304 177.574219,37.006542 
	C175.432388,37.006355 173.718933,37.007324 171.642944,37.010468 
	C170.185257,37.671509 169.090088,38.330376 167.997162,38.993774 
	C167.999390,38.998302 167.996338,38.997559 167.559174,38.996704 
	C165.080948,38.995407 163.039856,38.994957 161.094574,38.670547 
	C163.459686,33.565395 165.728989,28.784204 167.998718,23.598885 
	C168.002609,21.847996 168.006058,20.501242 168.009506,19.154486 
z"/>
<path fill="#83A9F5" opacity="1.000000" stroke="none" 
	d="
M254.968903,80.422401 
	C254.604706,80.578056 254.240509,80.733711 253.368103,80.708939 
	C250.657455,80.753281 248.455017,80.978050 245.978363,80.862778 
	C243.869141,74.336441 245.180923,68.562286 248.404663,62.994068 
	C252.236191,63.654762 255.664108,64.307060 259.092041,64.959358 
	C260.987762,65.748634 262.883484,66.537910 264.638733,67.737267 
	C264.656769,70.085365 264.815216,72.023376 264.619965,74.033997 
	C261.272339,76.366783 256.114075,75.440804 254.968903,80.422401 
z"/>
<path fill="#BE5AF3" opacity="1.000000" stroke="none" 
	d="
M167.719879,19.033564 
	C168.006058,20.501242 168.002609,21.847996 167.648376,23.661104 
	C161.133438,27.974531 155.086624,32.029488 148.764908,35.597370 
	C144.372284,38.076508 139.601715,39.885998 135.066528,41.657303 
	C136.334702,39.799213 137.821274,38.422909 138.680130,36.728436 
	C140.619202,32.902760 142.248016,28.919827 144.003052,25.000866 
	C149.817078,23.878471 155.677246,22.939913 161.411850,21.500969 
	C162.799057,21.152884 163.771606,19.152185 164.954102,17.550831 
	C165.792328,17.764364 166.611282,18.338503 167.719879,19.033564 
z"/>
<path fill="#A883F1" opacity="1.000000" stroke="none" 
	d="
M201.042374,35.887848 
	C202.282013,36.354019 203.521667,36.820194 204.716339,37.890488 
	C201.919876,39.898628 199.022903,41.078777 196.446777,42.752697 
	C190.875107,46.373055 185.467880,50.246471 179.555817,54.013222 
	C175.412766,53.670116 171.707306,53.330170 168.099640,52.663689 
	C170.060226,51.092751 171.921188,49.845566 173.786209,48.604515 
	C177.827530,45.915295 182.431168,43.717098 183.469482,38.011730 
	C187.619995,38.007111 191.310425,38.003525 195.247223,38.202293 
	C197.343185,37.565716 199.192780,36.726780 201.042374,35.887848 
z"/>
<path fill="#A18AF1" opacity="1.000000" stroke="none" 
	d="
M179.993408,54.016380 
	C185.467880,50.246471 190.875107,46.373055 196.446777,42.752697 
	C199.022903,41.078777 201.919876,39.898628 204.858795,38.198288 
	C205.827271,38.235897 206.608322,38.569832 207.671997,39.397781 
	C205.970566,43.593102 203.986511,47.294403 201.650055,51.060890 
	C198.123047,52.432205 194.713150,53.522770 194.624023,57.930878 
	C191.496460,57.248405 188.744247,56.635025 185.653809,55.961185 
	C184.211670,55.609867 183.107758,55.319004 181.720306,54.972946 
	C180.955658,54.617290 180.474533,54.316837 179.993408,54.016380 
z"/>
<path fill="#1F60BB" opacity="1.000000" stroke="none" 
	d="
M152.972534,278.049683 
	C158.783295,285.333038 164.594070,292.616394 170.749481,299.976685 
	C169.635773,300.142731 167.730515,300.876251 166.787521,300.222260 
	C156.187454,292.870697 145.733505,285.308411 135.250671,277.788300 
	C134.855316,277.504669 134.565323,277.074188 134.050766,276.423035 
	C136.655701,276.629425 139.439972,277.104553 142.215332,277.626862 
	C144.449509,278.047394 146.672958,278.524933 149.629700,278.874817 
	C151.229691,278.531525 152.101120,278.290588 152.972534,278.049683 
z"/>
<path fill="#9A89F0" opacity="1.000000" stroke="none" 
	d="
M202.002441,50.995701 
	C203.986511,47.294403 205.970566,43.593102 207.975128,39.534248 
	C212.370895,40.985783 216.759766,42.762985 221.115219,44.618584 
	C223.037323,45.437477 224.891617,46.415459 226.594147,47.714859 
	C223.605484,49.739433 220.799393,51.370365 217.576324,52.994080 
	C212.107071,52.323143 207.054749,51.659424 202.002441,50.995701 
z"/>
<path fill="#2E73C8" opacity="1.000000" stroke="none" 
	d="
M179.935349,275.609680 
	C175.304947,275.813660 170.747925,275.684723 166.198257,275.426056 
	C164.215302,275.313385 162.247452,274.934662 160.371170,274.087097 
	C163.986496,271.340302 167.503403,269.183258 171.369080,266.958832 
	C175.146896,264.939697 178.575943,262.987946 182.004974,261.036163 
	C182.468781,261.033813 182.932602,261.031464 183.743851,261.040924 
	C182.731430,265.776520 181.371567,270.500336 179.935349,275.609680 
z"/>
<path fill="#29CBC3" opacity="1.000000" stroke="none" 
	d="
M258.099548,199.331894 
	C262.960358,200.571106 267.509338,200.882111 270.521149,195.422440 
	C270.912537,194.712982 272.165985,194.479095 273.366516,193.997574 
	C273.787994,198.278168 274.363525,202.659485 273.747009,206.866089 
	C273.387421,209.319534 271.120544,211.493439 269.382568,213.953491 
	C268.224640,207.198761 263.372101,203.305557 258.099548,199.331894 
z"/>
<path fill="#908CF3" opacity="1.000000" stroke="none" 
	d="
M217.993286,53.001297 
	C220.799393,51.370365 223.605484,49.739433 226.763016,48.033978 
	C231.346146,50.068138 235.577835,52.176823 239.714432,54.819077 
	C238.406693,56.241421 237.194077,57.130199 235.577911,58.009796 
	C232.783142,57.665115 230.391907,57.329613 227.715317,56.760414 
	C224.284668,55.690384 221.139374,54.854050 217.994324,53.763611 
	C217.994125,53.340103 217.993698,53.170700 217.993286,53.001297 
z"/>
<path fill="#B472F5" opacity="1.000000" stroke="none" 
	d="
M195.000870,37.999939 
	C191.310425,38.003525 187.619995,38.007111 183.088486,38.006973 
	C180.832489,37.671402 179.417542,37.339550 178.002609,37.007698 
	C182.220825,35.169304 186.439056,33.330910 190.854248,31.190929 
	C192.946701,31.680414 194.842163,32.471485 196.830338,33.901627 
	C196.282303,35.693775 195.641586,36.846855 195.000870,37.999939 
z"/>
<path fill="#8290F4" opacity="1.000000" stroke="none" 
	d="
M235.981445,58.018982 
	C237.194077,57.130199 238.406693,56.241421 239.872498,55.150414 
	C246.340805,58.070145 252.555908,61.192101 258.931519,64.636711 
	C255.664108,64.307060 252.236191,63.654762 248.131546,62.765610 
	C243.630371,61.025501 239.805908,59.522243 235.981445,58.018982 
z"/>
<path fill="#91B0F5" opacity="1.000000" stroke="none" 
	d="
M264.973694,73.961395 
	C264.815216,72.023376 264.656769,70.085365 264.792175,68.057991 
	C267.665283,69.088524 270.244507,70.208420 272.819458,71.688446 
	C271.160156,72.655724 269.505127,73.262878 267.151215,73.927979 
	C265.959442,73.977745 265.466553,73.969566 264.973694,73.961395 
z"/>
<path fill="#7A5DCB" opacity="1.000000" stroke="none" 
	d="
M7.998042,146.003616 
	C7.985480,151.735779 7.972918,157.467941 7.949075,163.677612 
	C7.592090,162.649445 6.960016,161.146103 6.947537,159.637665 
	C6.871184,150.407700 6.935286,141.176575 7.029682,131.484299 
	C7.369378,131.499908 7.631977,131.977051 7.938507,133.156433 
	C7.987676,135.574127 7.992914,137.289627 7.992913,139.442200 
	C7.991130,141.920715 7.994586,143.962173 7.998042,146.003616 
z"/>
<path fill="#AB74DC" opacity="1.000000" stroke="none" 
	d="
M7.087178,98.972252 
	C7.056590,99.776756 7.026002,100.581253 6.970297,101.787537 
	C6.599427,101.356766 5.954041,100.524315 5.953777,99.691658 
	C5.950789,90.251671 6.046512,80.811661 6.542508,71.386963 
	C7.007746,71.573059 7.046281,71.743828 7.041819,72.255615 
	C6.989226,73.053619 6.979629,73.510605 6.968356,74.440018 
	C7.006847,82.932388 7.047012,90.952316 7.087178,98.972252 
z"/>
<path fill="#AE7BF1" opacity="1.000000" stroke="none" 
	d="
M195.247223,38.202293 
	C195.641586,36.846855 196.282303,35.693775 196.985870,34.214821 
	C198.283020,34.350891 199.517349,34.812832 200.897018,35.581310 
	C199.192780,36.726780 197.343185,37.565716 195.247223,38.202293 
z"/>
<path fill="#7D30DA" opacity="1.000000" stroke="none" 
	d="
M7.056183,104.440430 
	C7.422747,104.785309 7.707300,105.569313 7.999887,107.048256 
	C8.009577,108.491287 8.011233,109.239388 8.012890,109.987488 
	C8.008802,110.435379 8.004715,110.883278 7.784797,111.666534 
	C7.568965,112.001892 7.135786,112.006180 7.135786,112.006180 
	C7.081915,109.630638 7.028044,107.255104 7.056183,104.440430 
z"/>
<path fill="#7D30DA" opacity="1.000000" stroke="none" 
	d="
M7.084815,71.914589 
	C7.046281,71.743828 7.007746,71.573059 6.910415,71.146729 
	C6.986274,70.321655 7.120930,69.752136 7.532105,69.072670 
	C8.702454,69.158203 9.596282,69.353699 10.423185,69.793640 
	C9.265779,70.663582 8.175297,71.289085 7.084815,71.914589 
z"/>
<path fill="#6F45D1" opacity="1.000000" stroke="none" 
	d="
M7.053698,112.371567 
	C7.135786,112.006180 7.568965,112.001892 7.785590,112.002472 
	C7.837740,112.822166 7.673266,113.641273 7.319666,114.713318 
	C7.077563,114.223152 7.024587,113.480049 7.053698,112.371567 
z"/>
<path fill="#C34AF3" opacity="1.000000" stroke="none" 
	d="
M133.704346,6.107075 
	C133.768326,6.373426 133.528183,6.574582 133.035187,6.824658 
	C133.024231,6.639269 133.230179,6.362035 133.704346,6.107075 
z"/>
<path fill="#2849A0" opacity="1.000000" stroke="none" 
	d="
M99.409851,223.919434 
	C100.621994,221.225281 102.243370,218.451782 104.325272,215.264038 
	C107.998268,214.236847 111.210159,213.620880 114.423302,213.011520 
	C121.185356,211.729172 121.922020,210.854492 122.235123,203.785385 
	C123.343399,202.960312 124.212456,202.351303 125.503098,201.738037 
	C133.867523,202.651733 141.810349,203.569672 149.720306,204.631104 
	C149.687408,204.774582 149.795425,205.048462 149.795425,205.048462 
	C149.819656,207.410751 149.843887,209.773041 149.802917,212.575470 
	C147.774353,213.223785 145.432388,212.812347 143.910110,213.742447 
	C135.175003,219.079590 125.127098,219.896713 115.552208,222.196442 
	C110.469460,223.417252 105.073601,223.334427 99.409851,223.919434 
z"/>
<path fill="#204692" opacity="1.000000" stroke="none" 
	d="
M148.333755,240.996933 
	C147.082855,237.502777 144.907806,237.505814 142.386047,239.132309 
	C139.329117,241.103958 136.809021,240.965851 133.288757,239.350525 
	C130.511429,238.076111 126.538673,239.450073 123.094147,239.571182 
	C120.870033,239.649353 118.641052,239.589188 116.207428,239.296112 
	C118.007202,238.018692 119.945503,236.382401 122.031975,236.164429 
	C132.207291,235.101486 139.912933,230.142349 145.983490,222.156845 
	C146.701981,221.211670 148.045609,220.741730 149.441574,220.029190 
	C149.910202,224.360260 150.036728,228.713638 150.194153,233.956894 
	C150.153381,236.897003 150.081741,238.947266 150.010117,240.997513 
	C149.563095,240.997711 149.116058,240.997925 148.333755,240.996933 
z"/>
<path fill="#2849A0" opacity="1.000000" stroke="none" 
	d="
M89.295120,227.917755 
	C89.469597,227.386520 89.939293,226.774551 90.704041,226.081589 
	C90.529503,226.612747 90.059921,227.224884 89.295120,227.917755 
z"/>
<path fill="#2D44A2" opacity="1.000000" stroke="none" 
	d="
M121.995903,204.001465 
	C121.922020,210.854492 121.185356,211.729172 114.423302,213.011520 
	C111.210159,213.620880 107.998268,214.236847 104.392441,214.924896 
	C98.447144,214.598206 93.331451,215.588425 88.212868,218.145340 
	C84.651138,219.924545 80.277672,220.041656 76.299477,221.032349 
	C69.106613,222.823593 61.988960,224.964584 54.732834,226.429016 
	C52.077980,226.964798 49.118736,225.992340 46.149635,225.355179 
	C49.655289,222.906174 53.275986,220.747849 56.978069,218.739532 
	C58.858315,217.719513 60.815350,216.468842 62.857803,216.184067 
	C71.996376,214.910004 80.881241,213.179993 88.234329,206.975327 
	C89.329094,206.051544 90.930336,205.727997 93.050064,205.087097 
	C101.089447,207.333649 108.349815,207.692871 115.686493,205.117355 
	C117.675133,204.419250 119.886673,204.356064 121.995903,204.001465 
z"/>
<path fill="#3247A9" opacity="1.000000" stroke="none" 
	d="
M122.235123,203.785385 
	C119.886673,204.356064 117.675133,204.419250 115.686493,205.117355 
	C108.349815,207.692871 101.089447,207.333649 93.401733,205.023102 
	C93.666702,202.272827 94.332794,199.546875 94.998352,196.411072 
	C96.605858,194.877213 98.213890,193.753235 100.272484,192.342560 
	C108.842537,195.284698 116.962029,198.513504 125.081512,201.742310 
	C124.212456,202.351303 123.343399,202.960312 122.235123,203.785385 
z"/>
<path fill="#2D44A2" opacity="1.000000" stroke="none" 
	d="
M42.671070,225.015259 
	C42.151150,225.463425 41.303993,225.923782 40.230003,226.190247 
	C40.783390,225.673386 41.563610,225.350418 42.671070,225.015259 
z"/>
<path fill="#FDFDFE" opacity="1.000000" stroke="none" 
	d="
M125.503105,201.738037 
	C116.962029,198.513504 108.842537,195.284698 100.362465,192.025528 
	C96.603485,189.628403 93.205078,187.261642 89.334946,184.471893 
	C84.637718,179.346664 80.412224,174.644394 76.186729,169.942139 
	C74.594490,166.482285 73.002251,163.022415 71.189499,159.283722 
	C70.398087,156.881577 69.827194,154.758255 69.088898,151.915649 
	C66.725975,144.411331 66.555603,137.665710 69.525558,130.687469 
	C71.035896,126.981483 72.335823,123.565147 73.635757,120.148819 
	C74.816902,118.034325 75.998055,115.919830 77.226501,113.458656 
	C78.948936,111.359535 80.624077,109.607101 82.688362,107.406784 
	C83.459511,106.370636 83.841515,105.782364 84.526306,105.075256 
	C87.885155,102.305588 90.941231,99.654755 94.320900,96.889229 
	C103.148849,92.617439 111.653206,88.460335 120.557571,84.272820 
	C125.632462,83.113647 130.307343,81.984879 135.403809,80.887238 
	C139.888657,80.505699 143.951920,80.093018 148.263489,79.751152 
	C148.682098,79.797531 148.852417,79.773094 149.450333,79.772751 
	C155.246048,79.809723 160.614151,79.822586 166.369476,79.963821 
	C169.172287,80.392281 171.587921,80.692375 174.366791,81.124664 
	C180.712250,82.919609 186.694458,84.582359 192.940887,86.462051 
	C194.672836,87.222824 196.140610,87.766647 197.869965,88.531052 
	C200.325867,89.893745 202.520157,91.035866 204.872009,92.377731 
	C205.495178,92.752541 205.960785,92.927620 206.640717,93.395020 
	C209.812653,95.854126 212.770264,98.020927 215.880402,100.427887 
	C216.620346,101.132454 217.207748,101.596863 217.795135,102.061279 
	C226.171494,110.893852 232.372513,120.950089 234.223969,133.149597 
	C234.911835,137.682053 234.556351,142.372849 234.704376,147.450256 
	C233.385605,152.437668 232.039124,156.966293 230.631073,161.832855 
	C228.435974,165.558380 226.302444,168.945938 224.073837,172.663544 
	C222.670090,174.438293 221.361435,175.883011 219.923981,177.630768 
	C215.655106,181.294586 211.515015,184.655350 207.174225,188.251648 
	C204.285355,190.968735 201.597214,193.450287 198.853760,196.266327 
	C195.546539,200.499084 192.294617,204.397339 188.879944,208.596405 
	C187.082840,210.456879 185.448471,212.016510 183.643646,213.826431 
	C181.075943,216.142410 178.678711,218.208084 176.139984,220.570724 
	C173.794952,222.535599 171.591431,224.203522 168.922699,226.223572 
	C169.527512,220.980881 170.054596,216.411850 170.664505,211.013580 
	C170.747330,207.619980 170.747330,205.055634 170.747330,202.184402 
	C166.741714,202.916290 162.939331,203.611053 159.136932,204.305832 
	C158.074783,204.302109 157.012650,204.298386 155.187988,204.280731 
	C152.868042,204.340408 151.310608,204.414017 149.753189,204.487610 
	C141.810349,203.569672 133.867523,202.651733 125.503105,201.738037 
M142.166428,144.702011 
	C143.289017,146.531906 144.411606,148.361816 145.983871,150.792389 
	C148.777374,151.354721 151.754593,152.824570 154.328781,152.303497 
	C161.129623,150.926849 162.631378,146.605103 160.117264,136.736847 
	C158.096222,135.454926 156.075180,134.172989 153.496552,132.452026 
	C145.535675,132.517807 141.507980,136.654358 142.166428,144.702011 
M121.962280,134.718063 
	C114.834236,130.024384 108.582397,132.057693 105.473534,140.507919 
	C105.846992,142.719299 106.220451,144.930695 106.756836,147.846909 
	C112.825485,155.388718 120.949066,154.568893 125.250618,145.348907 
	C126.549332,141.333206 125.677216,137.941238 121.962280,134.718063 
M192.957703,151.753784 
	C198.655518,147.856384 200.401321,142.246811 197.428864,137.387146 
	C194.789520,133.072083 188.374390,131.110825 183.925232,133.258774 
	C178.956116,135.657745 176.861252,141.430237 179.015610,146.787445 
	C181.046738,151.838211 186.135849,153.858826 192.957703,151.753784 
z"/>
<path fill="#A8DEF2" opacity="1.000000" stroke="none" 
	d="
M218.066681,101.820488 
	C217.207748,101.596863 216.620346,101.132454 216.183319,100.227020 
	C223.901047,94.878838 231.468399,89.971664 239.344559,85.006546 
	C240.455109,84.323265 241.256851,83.697937 242.398041,83.044830 
	C243.909195,82.412308 245.080887,81.807556 246.252579,81.202805 
	C248.455017,80.978050 250.657455,80.753281 253.174347,80.753372 
	C250.139328,83.111938 246.789841,85.245659 243.210999,87.614632 
	C240.463409,89.361656 237.945175,90.873436 235.200745,92.619904 
	C229.429123,95.762962 223.883682,98.671333 218.066681,101.820488 
z"/>
<path fill="#2790D0" opacity="1.000000" stroke="none" 
	d="
M150.046844,241.424225 
	C150.081741,238.947266 150.153381,236.897003 150.293396,234.410278 
	C157.181885,231.926422 161.209656,236.245438 165.063995,240.613724 
	C170.787125,247.099930 176.332855,253.742691 181.979538,260.677490 
	C178.575943,262.987946 175.146896,264.939697 171.061813,266.805389 
	C168.673660,265.246979 166.681641,263.988556 165.259979,262.260803 
	C161.535568,257.734497 158.160797,252.919205 154.403351,248.422409 
	C153.619873,247.484787 151.788498,247.422775 150.440033,246.957245 
	C150.321213,245.255142 150.202408,243.553024 150.046844,241.424225 
z"/>
<path fill="#31A2D0" opacity="1.000000" stroke="none" 
	d="
M159.116867,204.720306 
	C162.939331,203.611053 166.741714,202.916290 170.747330,202.184402 
	C170.747330,205.055634 170.747330,207.619980 170.604919,210.614807 
	C163.220459,212.410049 160.567215,211.030273 159.116867,204.720306 
z"/>
<path fill="#31A2D0" opacity="1.000000" stroke="none" 
	d="
M149.720306,204.631104 
	C151.310608,204.414017 152.868042,204.340408 154.797943,204.364456 
	C153.621414,204.736908 152.072403,205.011719 150.159393,205.167511 
	C149.795425,205.048462 149.687408,204.774582 149.720306,204.631104 
z"/>
<path fill="#4A41B7" opacity="1.000000" stroke="none" 
	d="
M8.981791,187.486176 
	C14.708699,185.381302 20.476896,183.858231 26.159824,182.064941 
	C30.161268,180.802277 33.790482,180.599960 37.605068,182.940292 
	C42.344902,185.848282 46.052841,182.196426 50.023945,180.333054 
	C55.385567,177.817200 60.824978,175.467133 66.431068,173.310547 
	C61.113274,176.870743 55.531086,180.064041 50.092693,183.485870 
	C42.008518,188.572433 34.026028,193.820602 26.000259,199.000000 
	C26.000263,199.000000 26.000000,199.000000 25.689367,199.053802 
	C24.584387,199.736572 23.790041,200.365509 22.995693,200.994446 
	C20.469242,202.258026 17.974487,203.590500 15.409578,204.770477 
	C10.444493,207.054672 9.087617,206.229599 9.017093,200.913483 
	C8.959786,196.593796 8.993370,192.272888 8.981791,187.486176 
z"/>
<path fill="#4141AE" opacity="1.000000" stroke="none" 
	d="
M26.379795,198.979889 
	C34.026028,193.820602 42.008518,188.572433 50.092693,183.485870 
	C55.531086,180.064041 61.113274,176.870743 66.817825,173.290421 
	C69.800446,171.997177 72.596367,170.988693 75.789505,169.961182 
	C80.412224,174.644394 84.637718,179.346664 89.014236,184.335327 
	C88.300522,185.043549 87.414658,185.870285 86.574196,185.826431 
	C73.851868,185.162949 61.822350,187.891281 49.943935,192.305267 
	C42.429131,195.097702 34.501698,196.779724 26.379795,198.979889 
z"/>
<path fill="#4141AE" opacity="1.000000" stroke="none" 
	d="
M23.332611,200.975067 
	C23.790041,200.365509 24.584387,199.736572 25.689425,199.054016 
	C25.223251,199.652145 24.446388,200.303894 23.332611,200.975067 
z"/>
<path fill="#9DE1F0" opacity="1.000000" stroke="none" 
	d="
M264.619965,74.034004 
	C265.466553,73.969566 265.959442,73.977745 266.825592,73.994873 
	C263.361176,76.058998 259.523499,78.114159 255.327362,80.295868 
	C256.114075,75.440804 261.272339,76.366783 264.619965,74.034004 
z"/>
<path fill="#6844CC" opacity="1.000000" stroke="none" 
	d="
M73.161743,120.119301 
	C72.335823,123.565147 71.035896,126.981483 69.155251,130.750443 
	C67.239113,132.639023 65.561028,133.993851 64.634834,135.746094 
	C62.203476,140.345917 58.414143,142.449158 53.263073,141.818085 
	C38.744148,140.039337 24.182610,137.447311 9.907344,143.722504 
	C9.207395,141.993011 8.602772,140.499069 7.998150,139.005112 
	C7.992914,137.289627 7.987676,135.574127 7.983637,133.430023 
	C8.791365,132.846771 9.986139,132.979019 10.344868,132.493515 
	C14.296216,127.145744 19.499468,128.486237 25.099953,128.688171 
	C35.717739,129.071030 46.412472,129.493622 56.510895,124.048370 
	C61.239742,121.498497 67.255310,121.334885 73.161743,120.119301 
z"/>
<path fill="#2486CE" opacity="1.000000" stroke="none" 
	d="
M150.341370,247.413666 
	C151.788498,247.422775 153.619873,247.484787 154.403351,248.422409 
	C158.160797,252.919205 161.535568,257.734497 165.259979,262.260803 
	C166.681641,263.988556 168.673660,265.246979 170.713043,266.872742 
	C167.503403,269.183258 163.986496,271.340302 160.231140,273.739197 
	C157.775574,275.143738 155.558456,276.306488 153.156937,277.759460 
	C152.101120,278.290588 151.229691,278.531525 150.025024,278.876404 
	C149.794800,272.633636 149.897827,266.286926 149.962860,259.473694 
	C150.030807,255.294815 150.136765,251.582458 150.341370,247.413666 
z"/>
<path fill="#6143C7" opacity="1.000000" stroke="none" 
	d="
M7.992911,139.442200 
	C8.602772,140.499069 9.207395,141.993011 9.907344,143.722504 
	C24.182610,137.447311 38.744148,140.039337 53.263073,141.818085 
	C58.414143,142.449158 62.203476,140.345917 64.634834,135.746094 
	C65.561028,133.993851 67.239113,132.639023 68.944839,131.040100 
	C66.555603,137.665710 66.725975,144.411331 68.902496,151.600861 
	C64.998169,152.342743 61.094982,152.542282 57.230865,153.043213 
	C45.308804,154.588699 33.375591,156.084320 21.503740,157.960220 
	C17.677698,158.564789 14.028401,160.287888 9.530719,161.748566 
	C9.168431,156.621246 8.817331,151.652283 8.232137,146.343460 
	C7.994586,143.962173 7.991130,141.920715 7.992911,139.442200 
z"/>
<path fill="#A034EA" opacity="1.000000" stroke="none" 
	d="
M73.728905,64.234299 
	C77.072769,63.353592 80.146004,62.700348 83.591125,62.386185 
	C82.975815,64.817604 81.988632,66.909935 80.635162,69.020943 
	C72.709602,72.510582 65.454857,76.376106 60.663170,83.865524 
	C54.840183,82.050285 49.374065,80.264946 43.907948,78.479614 
	C42.776649,72.078819 45.045162,68.448212 50.940578,69.354652 
	C59.307281,70.641037 66.193344,67.134438 73.728905,64.234299 
z"/>
<path fill="#8A3FE0" opacity="1.000000" stroke="none" 
	d="
M7.041819,72.255615 
	C8.175297,71.289085 9.265779,70.663582 10.686008,70.019241 
	C12.510269,70.468063 14.004782,70.935730 15.918115,71.947769 
	C23.932798,76.300415 31.528662,80.108704 38.853939,84.161469 
	C35.677654,85.603806 32.834682,87.609138 29.853916,87.840683 
	C22.386129,88.420792 14.571317,86.643150 8.021709,91.530746 
	C7.666532,85.364647 7.318282,79.666115 6.970031,73.967590 
	C6.979629,73.510605 6.989226,73.053619 7.041819,72.255615 
z"/>
<path fill="#4D2998" opacity="1.000000" stroke="none" 
	d="
M39.124523,83.916992 
	C31.528662,80.108704 23.932798,76.300415 16.151958,72.191727 
	C23.440239,73.598450 30.916267,75.293579 38.384525,77.022278 
	C39.976276,77.390724 41.539780,77.881233 43.512123,78.397560 
	C49.374065,80.264946 54.840183,82.050285 60.705200,84.048965 
	C61.104103,84.262314 61.200573,84.625603 61.213123,84.984451 
	C63.940941,88.169510 66.756813,90.908730 69.316864,93.869179 
	C70.211952,94.904259 70.476929,96.484230 70.764175,97.785339 
	C69.993019,97.590019 69.487358,97.424736 68.727722,97.060699 
	C67.684845,96.550156 66.895935,96.238350 66.107025,95.926544 
	C61.346661,93.943031 56.586296,91.959511 51.256645,89.658424 
	C46.833084,87.532898 42.978806,85.724945 39.124523,83.916992 
z"/>
<path fill="#9640EB" opacity="1.000000" stroke="none" 
	d="
M81.001457,69.002274 
	C81.988632,66.909935 82.975815,64.817604 83.980438,62.366570 
	C85.170349,61.483124 86.342804,60.958370 87.764481,60.223915 
	C89.075897,60.007915 90.138092,60.001614 91.889908,60.167000 
	C95.386902,62.892258 98.194275,65.445824 100.942490,68.347412 
	C100.922211,70.796852 100.961105,72.898270 100.626656,75.019135 
	C96.502792,76.692047 92.752281,78.345512 88.830170,79.707901 
	C86.106201,75.945297 83.553825,72.473785 81.001457,69.002274 
z"/>
<path fill="#7B45D8" opacity="1.000000" stroke="none" 
	d="
M65.822357,96.166191 
	C66.895935,96.238350 67.684845,96.550156 68.702248,97.415276 
	C67.688293,102.327309 63.772415,101.455559 60.743954,101.904335 
	C56.672318,102.507721 52.449726,102.190979 48.417633,102.943077 
	C38.692928,104.756996 29.227726,108.172005 19.068361,107.125969 
	C18.120033,107.028336 17.026503,108.340919 16.000391,108.998726 
	C13.607195,109.326988 11.213998,109.655251 8.416845,109.985497 
	C8.011233,109.239388 8.009577,108.491287 8.014124,107.368744 
	C9.504233,106.009048 10.913914,104.878342 12.490120,104.073952 
	C14.644374,102.974564 17.079130,101.059021 19.124680,101.354607 
	C26.967009,102.487877 34.101711,100.769882 41.239914,97.828346 
	C47.387959,95.294838 53.703659,95.164955 60.141502,97.336311 
	C61.662586,97.849342 63.724541,96.758743 65.822357,96.166191 
z"/>
<path fill="#7748D6" opacity="1.000000" stroke="none" 
	d="
M16.308336,109.223618 
	C17.026503,108.340919 18.120033,107.028336 19.068361,107.125969 
	C29.227726,108.172005 38.692928,104.756996 48.417633,102.943077 
	C52.449726,102.190979 56.672318,102.507721 60.743954,101.904335 
	C63.772415,101.455559 67.688293,102.327309 68.956215,97.614021 
	C69.487358,97.424736 69.993019,97.590019 71.109360,97.898422 
	C75.887863,100.425713 80.055695,102.809898 84.223518,105.194092 
	C83.841515,105.782364 83.459511,106.370636 82.846771,107.099136 
	C76.310638,110.392624 70.107132,107.635704 63.816467,107.074463 
	C51.182438,105.947258 38.755585,107.970001 26.328079,110.063057 
	C23.213657,110.587593 19.859993,109.691628 16.308336,109.223618 
z"/>
<path fill="#BC4EF2" opacity="1.000000" stroke="none" 
	d="
M143.637482,24.843225 
	C142.248016,28.919827 140.619202,32.902760 138.680130,36.728436 
	C137.821274,38.422909 136.334702,39.799213 134.814423,41.778885 
	C133.995483,42.488487 133.495224,42.739151 132.653473,42.758118 
	C126.208405,42.351398 120.104836,42.176384 113.980034,41.634472 
	C112.638794,40.178322 111.318787,39.089069 109.998779,37.999817 
	C109.375900,36.555691 108.753014,35.111568 108.065842,33.333298 
	C113.468460,31.685400 118.880470,29.735407 124.419472,29.257645 
	C128.913574,28.870008 132.381409,27.376514 135.765350,24.246708 
	C138.422516,24.229126 140.847198,24.457354 143.637482,24.843225 
z"/>
<path fill="#B547F1" opacity="1.000000" stroke="none" 
	d="
M109.576538,38.000023 
	C111.318787,39.089069 112.638794,40.178322 113.915176,41.987991 
	C111.580734,47.130611 109.289909,51.552811 106.590820,55.986805 
	C101.456154,56.996361 96.729759,57.994122 92.003357,58.991879 
	C91.353310,53.938137 90.703262,48.884403 90.026154,43.415329 
	C96.384155,41.333405 102.769226,39.666817 109.576538,38.000023 
z"/>
<path fill="#9C49EC" opacity="1.000000" stroke="none" 
	d="
M92.001038,59.242443 
	C96.729759,57.994122 101.456154,56.996361 106.958298,55.837250 
	C110.155930,55.448341 112.577812,55.220787 115.181030,55.253422 
	C115.577095,58.009148 115.791824,60.504688 115.872467,63.289547 
	C115.490570,64.386620 115.242744,65.194382 114.559433,66.001556 
	C109.749847,66.667114 105.375755,67.333252 101.001656,67.999390 
	C98.194275,65.445824 95.386902,62.892258 92.288467,60.166424 
	C91.997833,59.827106 91.998268,59.660053 92.001038,59.242443 
z"/>
<path fill="#8341DD" opacity="1.000000" stroke="none" 
	d="
M38.853939,84.161469 
	C42.978806,85.724945 46.833084,87.532898 50.868595,89.630898 
	C49.579834,90.610306 48.162552,91.463577 46.629425,91.956642 
	C42.853909,93.170860 39.088726,94.663361 35.201393,95.220116 
	C30.559349,95.884964 25.447599,96.854004 21.170080,95.577530 
	C15.763686,93.964188 12.743945,97.425209 8.376086,98.497971 
	C8.019995,96.083839 8.024315,94.041077 8.028635,91.998314 
	C14.571317,86.643150 22.386129,88.420792 29.853916,87.840683 
	C32.834682,87.609138 35.677654,85.603806 38.853939,84.161469 
z"/>
<path fill="#7D30DA" opacity="1.000000" stroke="none" 
	d="
M8.021709,91.530746 
	C8.024315,94.041077 8.019995,96.083839 8.023308,98.564369 
	C8.030941,99.002136 7.558330,98.995224 7.322754,98.983734 
	C7.047012,90.952316 7.006847,82.932388 6.968356,74.440018 
	C7.318282,79.666115 7.666532,85.364647 8.021709,91.530746 
z"/>
<path fill="#B862F2" opacity="1.000000" stroke="none" 
	d="
M132.994949,42.989815 
	C133.495224,42.739151 133.995483,42.488487 134.747879,42.116238 
	C139.601715,39.885998 144.372284,38.076508 148.764908,35.597370 
	C155.086624,32.029488 161.133438,27.974531 167.647934,24.065235 
	C165.728989,28.784204 163.459686,33.565395 160.845596,38.674213 
	C160.500809,39.001842 160.002792,39.006756 159.589539,39.005264 
	C155.363358,40.042747 151.569885,41.160976 147.732910,42.101852 
	C142.169327,43.466118 136.574341,44.702225 131.141479,45.730976 
	C131.858459,44.642578 132.426712,43.816196 132.994949,42.989815 
z"/>
<path fill="#AE7BF1" opacity="1.000000" stroke="none" 
	d="
M177.574219,37.006542 
	C179.417542,37.339550 180.832489,37.671402 182.628418,38.008011 
	C182.431168,43.717098 177.827530,45.915295 173.786209,48.604515 
	C171.921188,49.845566 170.060226,51.092751 167.699158,52.666199 
	C166.133102,52.998627 165.065323,53.002014 163.669891,52.990005 
	C162.560455,52.648773 161.778687,52.322941 161.017120,51.631104 
	C163.357010,47.175922 165.676682,43.086742 167.996338,38.997559 
	C167.996338,38.997559 167.999390,38.998302 168.359756,38.992287 
	C169.815247,38.326939 170.910370,37.667610 172.005493,37.008286 
	C173.718933,37.007324 175.432388,37.006355 177.574219,37.006542 
z"/>
<path fill="#AE74F1" opacity="1.000000" stroke="none" 
	d="
M167.559174,38.996708 
	C165.676682,43.086742 163.357010,47.175922 160.556854,51.633175 
	C156.384033,52.004528 152.691711,52.007812 148.624512,52.007389 
	C147.499832,51.997765 146.750031,51.991852 146.019440,51.622574 
	C147.308060,49.660442 148.353836,47.790997 149.893311,46.519119 
	C153.125671,43.848610 156.617477,41.492142 160.002792,39.006752 
	C160.002792,39.006756 160.500809,39.001842 160.749786,38.998177 
	C163.039856,38.994957 165.080948,38.995407 167.559174,38.996708 
z"/>
<path fill="#B472F5" opacity="1.000000" stroke="none" 
	d="
M171.642944,37.010464 
	C170.910370,37.667610 169.815247,38.326939 168.357513,38.987755 
	C169.090088,38.330376 170.185257,37.671509 171.642944,37.010464 
z"/>
<path fill="#85A3F2" opacity="1.000000" stroke="none" 
	d="
M245.978363,80.862778 
	C245.080887,81.807556 243.909195,82.412308 242.105377,82.814819 
	C239.647736,83.072487 237.822189,83.532387 235.663971,83.993996 
	C234.887726,83.997818 234.444138,83.999931 233.770996,83.763550 
	C231.027420,81.016869 228.513397,78.508682 226.027039,75.580780 
	C226.703354,69.105423 227.352020,63.049767 228.000687,56.994110 
	C230.391907,57.329613 232.783142,57.665115 235.577911,58.009800 
	C239.805908,59.522243 243.630371,61.025501 247.727936,62.757217 
	C245.180923,68.562286 243.869141,74.336441 245.978363,80.862778 
z"/>
<path fill="#9C79F0" opacity="1.000000" stroke="none" 
	d="
M163.997559,53.005402 
	C165.065323,53.002014 166.133102,52.998627 167.601349,52.992729 
	C171.707306,53.330170 175.412766,53.670116 179.555817,54.013222 
	C180.474533,54.316837 180.955658,54.617290 181.700256,55.338364 
	C179.454697,63.107979 172.448822,65.733162 166.757965,69.756516 
	C165.339783,67.010109 164.168533,64.506287 162.998230,61.581169 
	C163.331985,58.441723 163.664780,55.723564 163.997559,53.005402 
z"/>
<path fill="#977DEF" opacity="1.000000" stroke="none" 
	d="
M167.004883,69.999100 
	C172.448822,65.733162 179.454697,63.107979 181.983765,55.393566 
	C183.107758,55.319004 184.211670,55.609867 185.632263,56.355000 
	C185.299377,61.205673 184.649857,65.602074 183.828400,70.286842 
	C180.438828,74.047630 177.221191,77.520050 174.003540,80.992470 
	C171.587921,80.692375 169.172287,80.392281 166.373932,79.540085 
	C166.329102,75.991676 166.666992,72.995392 167.004883,69.999100 
z"/>
<path fill="#9995F1" opacity="1.000000" stroke="none" 
	d="
M217.576324,52.994080 
	C217.993698,53.170700 217.994125,53.340103 217.657288,53.826057 
	C214.881012,57.097095 212.442001,60.051586 209.750259,63.005615 
	C209.329041,63.005692 209.160553,63.006233 208.639893,62.940334 
	C205.857834,61.919571 203.427948,60.965248 200.650879,59.947079 
	C198.535599,59.255478 196.767487,58.627728 194.999390,57.999977 
	C194.713150,53.522770 198.123047,52.432205 201.650055,51.060890 
	C207.054749,51.659424 212.107071,52.323143 217.576324,52.994080 
z"/>
<path fill="#9784F1" opacity="1.000000" stroke="none" 
	d="
M194.624023,57.930882 
	C196.767487,58.627728 198.535599,59.255478 200.584137,60.282654 
	C198.242752,63.455528 195.620926,66.228989 192.593857,69.026962 
	C189.459183,69.367149 186.729752,69.682816 184.000305,69.998474 
	C184.649857,65.602074 185.299377,61.205673 185.970474,56.415459 
	C188.744247,56.635025 191.496460,57.248405 194.624023,57.930882 
z"/>
<path fill="#8B9DF2" opacity="1.000000" stroke="none" 
	d="
M210.002991,63.006073 
	C212.442001,60.051586 214.881012,57.097095 217.657059,54.080162 
	C221.139374,54.854050 224.284668,55.690384 227.715317,56.760414 
	C227.352020,63.049767 226.703354,69.105423 225.648346,75.601044 
	C221.495087,77.360519 217.748154,78.680023 214.002441,79.569527 
	C214.185715,77.694038 214.238861,76.217987 214.573059,74.808563 
	C215.761383,69.797058 215.382538,65.449150 210.002991,63.006073 
z"/>
<path fill="#8C44E9" opacity="1.000000" stroke="none" 
	d="
M89.001762,79.998978 
	C92.752281,78.345512 96.502792,76.692047 100.981163,75.084030 
	C105.473045,76.751907 109.237068,78.374344 113.070801,80.337860 
	C115.479515,81.887032 117.818542,83.095131 120.157562,84.303230 
	C111.653206,88.460335 103.148849,92.617439 94.150497,96.585686 
	C89.761101,94.617172 85.865692,92.837509 82.122513,90.742630 
	C84.517082,86.951279 86.759422,83.475128 89.001762,79.998978 
z"/>
<path fill="#57B4E7" opacity="1.000000" stroke="none" 
	d="
M192.594360,151.894196 
	C186.135849,153.858826 181.046738,151.838211 179.015610,146.787445 
	C176.861252,141.430237 178.956116,135.657745 183.925232,133.258774 
	C188.374390,131.110825 194.789520,133.072083 197.428864,137.387146 
	C200.401321,142.246811 198.655518,147.856384 192.594360,151.894196 
z"/>
<path fill="#8B93F1" opacity="1.000000" stroke="none" 
	d="
M209.750259,63.005611 
	C215.382538,65.449150 215.761383,69.797058 214.573059,74.808563 
	C214.238861,76.217987 214.185715,77.694038 213.662964,79.637436 
	C210.452988,84.149567 207.583725,88.163780 204.714447,92.177994 
	C202.520157,91.035866 200.325867,89.893745 198.146729,88.228241 
	C201.017639,79.996300 200.635223,70.792618 208.519241,65.372658 
	C208.994431,65.045982 208.848816,63.816288 208.992065,63.006775 
	C209.160553,63.006233 209.329041,63.005692 209.750259,63.005611 
z"/>
<path fill="#4E2DA1" opacity="1.000000" stroke="none" 
	d="
M81.970291,91.057838 
	C85.865692,92.837509 89.761101,94.617172 93.826904,96.700378 
	C90.941231,99.654755 87.885155,102.305588 84.526306,105.075256 
	C80.055695,102.809898 75.887863,100.425713 71.374847,97.928444 
	C70.476929,96.484230 70.211952,94.904259 69.316864,93.869179 
	C66.756813,90.908730 63.940941,88.169510 61.592247,85.057724 
	C68.629311,86.867378 75.299805,88.962608 81.970291,91.057838 
z"/>
<path fill="#849BF0" opacity="1.000000" stroke="none" 
	d="
M204.872025,92.377731 
	C207.583725,88.163780 210.452988,84.149567 213.661743,80.067429 
	C217.748154,78.680023 221.495087,77.360519 225.620697,76.020760 
	C228.513397,78.508682 231.027420,81.016869 233.479553,83.988953 
	C224.420578,87.336128 215.423477,90.219414 206.426376,93.102707 
	C205.960785,92.927620 205.495178,92.752541 204.872025,92.377731 
z"/>
<path fill="#8E8BF0" opacity="1.000000" stroke="none" 
	d="
M208.639893,62.940334 
	C208.848816,63.816288 208.994431,65.045982 208.519241,65.372658 
	C200.635223,70.792618 201.017639,79.996300 197.885117,88.007660 
	C196.140610,87.766647 194.672836,87.222824 193.195114,86.187805 
	C193.123123,80.131889 193.061111,74.567162 192.999084,69.002441 
	C195.620926,66.228989 198.242752,63.455528 200.931320,60.346497 
	C203.427948,60.965248 205.857834,61.919571 208.639893,62.940334 
z"/>
<path fill="#9663EF" opacity="1.000000" stroke="none" 
	d="
M148.015182,79.680344 
	C143.951920,80.093018 139.888657,80.505699 135.401901,80.512566 
	C134.649841,78.404175 134.321259,76.701599 133.917953,74.599182 
	C133.560516,71.134010 133.277817,68.068687 133.136444,64.810234 
	C133.487808,64.373146 133.730194,64.167244 134.418030,64.006317 
	C138.553909,64.675072 142.276642,65.336899 146.000412,66.399216 
	C146.667892,69.198189 147.334351,71.596672 148.064285,74.353081 
	C148.417313,76.131058 148.706848,77.551109 148.813309,79.061279 
	C148.389008,79.285599 148.183990,79.461914 148.015182,79.680344 
z"/>
<path fill="#9670F0" opacity="1.000000" stroke="none" 
	d="
M148.996399,78.971153 
	C148.706848,77.551109 148.417313,76.131058 148.301666,74.110580 
	C153.316132,69.674263 158.156708,65.838356 162.997284,62.002457 
	C164.168533,64.506287 165.339783,67.010109 166.757965,69.756516 
	C166.666992,72.995392 166.329102,75.991676 165.986740,79.411713 
	C160.614151,79.822586 155.246048,79.809723 149.445221,79.578369 
	C149.012497,79.359871 148.996399,78.971153 148.996399,78.971153 
z"/>
<path fill="#8E81EE" opacity="1.000000" stroke="none" 
	d="
M192.593857,69.026962 
	C193.061111,74.567162 193.123123,80.131889 192.930908,85.970856 
	C186.694458,84.582359 180.712250,82.919609 174.366791,81.124664 
	C177.221191,77.520050 180.438828,74.047630 183.828400,70.286850 
	C186.729752,69.682816 189.459183,69.367149 192.593857,69.026962 
z"/>
<path fill="#7994EB" opacity="1.000000" stroke="none" 
	d="
M206.640717,93.395020 
	C215.423477,90.219414 224.420578,87.336128 233.709122,84.227448 
	C234.444138,83.999931 234.887726,83.997818 235.997803,84.011795 
	C237.454788,84.373428 238.245270,84.718964 239.035736,85.064499 
	C231.468399,89.971664 223.901047,94.878838 216.030777,99.986870 
	C212.770264,98.020927 209.812653,95.854126 206.640717,93.395020 
z"/>
<path fill="#9054EB" opacity="1.000000" stroke="none" 
	d="
M133.992676,74.999023 
	C134.321259,76.701599 134.649841,78.404175 134.980316,80.481430 
	C130.307343,81.984879 125.632462,83.113647 120.557571,84.272820 
	C117.818542,83.095131 115.479515,81.887032 113.316498,80.095032 
	C114.329247,77.340942 115.166000,75.170746 116.411514,73.080002 
	C122.544411,73.772652 128.268539,74.385841 133.992676,74.999023 
z"/>
<path fill="#735CE1" opacity="1.000000" stroke="none" 
	d="
M106.593910,147.142075 
	C106.220451,144.930695 105.846992,142.719299 105.945053,140.431732 
	C112.994339,142.611511 117.572441,138.621155 122.350250,135.254623 
	C125.677216,137.941238 126.549332,141.333206 124.607780,145.679184 
	C118.174599,146.386993 112.384254,146.764526 106.593910,147.142075 
z"/>
<path fill="#6281E0" opacity="1.000000" stroke="none" 
	d="
M160.347427,137.331314 
	C162.631378,146.605103 161.129623,150.926849 154.328781,152.303497 
	C151.754593,152.824570 148.777374,151.354721 146.129700,150.404663 
	C148.187164,147.679993 150.098785,145.343048 152.373413,142.985367 
	C155.273422,141.086853 157.810425,139.209091 160.347427,137.331314 
z"/>
<path fill="#7F5EE9" opacity="1.000000" stroke="none" 
	d="
M122.156265,134.986343 
	C117.572441,138.621155 112.994339,142.611511 106.152924,140.150543 
	C108.582397,132.057693 114.834236,130.024384 122.156265,134.986343 
z"/>
<path fill="#635FD8" opacity="1.000000" stroke="none" 
	d="
M106.675369,147.494492 
	C112.384254,146.764526 118.174599,146.386993 124.418121,146.014130 
	C120.949066,154.568893 112.825485,155.388718 106.675369,147.494492 
z"/>
<path fill="#7571E5" opacity="1.000000" stroke="none" 
	d="
M142.225372,144.027832 
	C141.507980,136.654358 145.535675,132.517807 153.697784,133.023483 
	C152.599548,136.724472 151.300079,139.854004 149.607681,143.010956 
	C146.884949,143.368195 144.555161,143.698013 142.225372,144.027832 
z"/>
<path fill="#747DE8" opacity="1.000000" stroke="none" 
	d="
M150.000610,142.983521 
	C151.300079,139.854004 152.599548,136.724472 153.976578,133.242996 
	C156.075180,134.172989 158.096222,135.454926 160.232346,137.034088 
	C157.810425,139.209091 155.273422,141.086853 152.038300,142.981598 
	C150.893661,142.993546 150.447144,142.988525 150.000610,142.983521 
z"/>
<path fill="#6473DF" opacity="1.000000" stroke="none" 
	d="
M149.607666,143.010956 
	C150.447144,142.988525 150.893661,142.993546 151.675308,143.002335 
	C150.098785,145.343048 148.187164,147.679993 145.904877,150.104340 
	C144.411606,148.361816 143.289017,146.531906 142.195892,144.364929 
	C144.555161,143.698013 146.884949,143.368195 149.607666,143.010956 
z"/>
<path fill="#977DEF" opacity="1.000000" stroke="none" 
	d="
M148.813324,79.061279 
	C148.996399,78.971153 149.012497,79.359871 149.017609,79.554260 
	C148.852417,79.773094 148.682098,79.797531 148.263489,79.751152 
	C148.183990,79.461914 148.389008,79.285599 148.813324,79.061279 
z"/>
<path fill="#849BF0" opacity="1.000000" stroke="none" 
	d="
M239.344559,85.006546 
	C238.245270,84.718964 237.454788,84.373428 236.330490,84.010086 
	C237.822189,83.532387 239.647736,83.072487 241.765930,82.842590 
	C241.256851,83.697937 240.455109,84.323265 239.344559,85.006546 
z"/>
<path fill="#9238E9" opacity="1.000000" stroke="none" 
	d="
M82.122513,90.742630 
	C75.299805,88.962608 68.629311,86.867378 61.579697,84.698875 
	C61.200573,84.625603 61.104103,84.262314 61.062073,84.078873 
	C65.454857,76.376106 72.709602,72.510582 80.635162,69.020943 
	C83.553825,72.473785 86.106201,75.945297 88.830170,79.707901 
	C86.759422,83.475128 84.517082,86.951279 82.122513,90.742630 
z"/>
<path fill="#944BEB" opacity="1.000000" stroke="none" 
	d="
M116.002747,73.000542 
	C115.166000,75.170746 114.329247,77.340942 113.246796,79.753960 
	C109.237068,78.374344 105.473045,76.751907 101.354507,75.064583 
	C100.961105,72.898270 100.922211,70.796852 100.942490,68.347412 
	C105.375755,67.333252 109.749847,66.667114 114.561760,66.401695 
	C115.333961,68.868454 115.668358,70.934494 116.002747,73.000542 
z"/>
<path fill="#B450F2" opacity="1.000000" stroke="none" 
	d="
M132.653473,42.758114 
	C132.426712,43.816196 131.858459,44.642578 130.860519,45.899590 
	C128.609528,48.220474 126.788208,50.110729 124.625107,52.153683 
	C121.188774,53.202003 118.094238,54.097622 114.999702,54.993237 
	C112.577812,55.220787 110.155930,55.448341 107.366562,55.825447 
	C109.289909,51.552811 111.580734,47.130611 113.936401,42.354893 
	C120.104836,42.176384 126.208405,42.351398 132.653473,42.758114 
z"/>
<path fill="#9F57EE" opacity="1.000000" stroke="none" 
	d="
M115.181030,55.253426 
	C118.094238,54.097622 121.188774,53.202003 125.056992,52.156273 
	C127.551689,52.010231 129.272705,52.014297 131.065948,52.390671 
	C132.093750,56.508446 133.049316,60.253918 134.004883,63.999390 
	C133.730194,64.167244 133.487808,64.373146 132.714447,64.809036 
	C126.769600,64.334045 121.388077,63.667137 116.006546,63.000225 
	C115.791824,60.504688 115.577095,58.009148 115.181030,55.253426 
z"/>
<path fill="#9656ED" opacity="1.000000" stroke="none" 
	d="
M115.872475,63.289547 
	C121.388077,63.667137 126.769600,64.334045 132.573120,65.002159 
	C133.277817,68.068687 133.560516,71.134010 133.917953,74.599182 
	C128.268539,74.385841 122.544411,73.772652 116.411514,73.080002 
	C115.668358,70.934494 115.333961,68.868454 114.997246,66.402267 
	C115.242744,65.194382 115.490570,64.386620 115.872475,63.289547 
z"/>
<path fill="#B06BF1" opacity="1.000000" stroke="none" 
	d="
M130.993713,52.018364 
	C129.272705,52.014297 127.551689,52.010231 125.398788,52.003578 
	C126.788208,50.110729 128.609528,48.220474 130.711792,46.161606 
	C136.574341,44.702225 142.169327,43.466118 147.732910,42.101852 
	C151.569885,41.160976 155.363358,40.042747 159.589539,39.005264 
	C156.617477,41.492142 153.125671,43.848610 149.893311,46.519119 
	C148.353836,47.790997 147.308060,49.660442 145.553314,51.626953 
	C140.376556,52.002590 135.685135,52.010475 130.993713,52.018364 
z"/>
<path fill="#9C6DEF" opacity="1.000000" stroke="none" 
	d="
M162.998245,61.581169 
	C158.156708,65.838356 153.316132,69.674263 148.238174,73.752655 
	C147.334351,71.596672 146.667892,69.198189 146.262054,66.130424 
	C147.348236,60.977795 148.173813,56.494446 148.999390,52.011101 
	C152.691711,52.007812 156.384033,52.004528 160.536636,51.999176 
	C161.778687,52.322941 162.560455,52.648773 163.669891,52.990005 
	C163.664780,55.723564 163.331985,58.441723 162.998245,61.581169 
z"/>
<path fill="#9F63EF" opacity="1.000000" stroke="none" 
	d="
M148.624512,52.007389 
	C148.173813,56.494446 147.348236,60.977795 146.261032,65.729935 
	C142.276642,65.336899 138.553909,64.675072 134.418030,64.006317 
	C133.049316,60.253918 132.093750,56.508446 131.065948,52.390671 
	C135.685135,52.010475 140.376556,52.002590 145.534103,51.990322 
	C146.750031,51.991852 147.499832,51.997765 148.624512,52.007389 
z"/>
</svg>