<svg version="1.1" id="Layer_1" xmlns="http://www.w3.org/2000/svg" xmlns:xlink="http://www.w3.org/1999/xlink" x="0px" y="0px"
	 width="100%" viewBox="0 0 456 395" enable-background="new 0 0 456 395" xml:space="preserve">
<path fill="transparent" opacity="0" stroke="none" 
	d="
M311.000000,396.000000 
	C207.333344,396.000000 104.166695,396.000000 1.000028,396.000000 
	C1.000018,264.333374 1.000018,132.666718 1.000009,1.000063 
	C152.999954,1.000042 304.999908,1.000042 456.999878,1.000021 
	C456.999939,132.666611 456.999939,264.333221 456.999969,395.999908 
	C408.500000,396.000000 360.000000,396.000000 311.000000,396.000000 
M170.394272,99.987022 
	C169.903809,100.309456 169.413345,100.631889 168.955185,100.892395 
	C168.955185,100.892395 168.892395,100.861816 168.215958,101.007896 
	C166.147751,102.016327 164.079559,103.024757 161.355438,104.270546 
	C145.050430,112.431999 128.748154,120.598969 112.432800,128.739685 
	C111.556007,129.177185 110.505051,129.275803 109.647903,129.740219 
	C108.177322,130.536972 106.795799,131.498093 104.590706,132.884506 
	C112.894234,137.634033 119.980843,141.816986 127.189651,145.777527 
	C135.874542,150.549011 144.615997,155.223190 153.423706,159.763458 
	C159.219711,162.751236 165.175964,165.428146 171.498749,168.096878 
	C171.498749,168.096878 171.954544,168.018997 172.312454,168.574966 
	C174.208405,169.646927 176.104340,170.718872 178.581482,172.174423 
	C185.724762,176.290222 192.820923,180.490631 200.023010,184.500824 
	C209.413956,189.729797 218.965149,194.673950 228.305939,199.989197 
	C237.451782,205.193527 246.208878,208.835236 256.002380,200.848099 
	C260.571686,197.121582 266.343567,194.869583 272.104004,191.651093 
	C262.637939,186.304947 254.017090,181.292023 245.259720,176.530106 
	C236.223038,171.616333 227.008759,167.029770 217.956039,162.144638 
	C210.415085,158.075302 203.088867,153.602554 195.498367,149.631836 
	C186.187927,144.761368 176.659973,140.306198 167.361252,135.414490 
	C166.518494,134.971130 166.661179,132.654541 166.678467,131.104507 
	C166.678467,131.104507 167.007172,130.990372 167.536438,130.828613 
	C167.804550,130.576370 168.072662,130.324112 168.672470,130.064529 
	C168.672470,130.064529 168.999161,130.006607 169.482925,129.852203 
	C169.668106,129.578690 169.853302,129.305176 170.029236,129.171234 
	C170.029236,129.171234 170.168777,129.180908 170.836456,129.059357 
	C172.611725,128.119690 174.387009,127.180031 176.858566,126.064018 
	C180.912064,124.012917 184.965546,121.961815 189.610947,119.771912 
	C190.432465,119.206970 191.253998,118.642029 192.066422,118.017754 
	C192.066422,118.017754 192.013428,118.045914 192.507217,117.841766 
	C192.729797,117.567665 192.952377,117.293564 193.786041,116.989624 
	C194.192902,116.961220 194.599762,116.932823 195.678131,116.724022 
	C210.129074,109.578812 224.526306,102.320221 239.093094,95.419586 
	C241.108322,94.464928 244.362411,94.456268 246.356171,95.424255 
	C253.649551,98.965263 260.652466,103.104553 267.565460,107.639862 
	C260.345917,111.796967 253.126389,115.954079 245.270248,120.364525 
	C233.493530,126.539139 221.716797,132.713760 209.224518,139.008743 
	C206.881241,140.017914 204.537979,141.027084 201.075867,142.518112 
	C210.366714,146.981873 218.575012,151.010498 226.897141,154.788376 
	C227.702087,155.153793 229.261032,154.060013 230.387314,153.482437 
	C236.907867,150.138657 243.403625,146.746521 250.569458,143.893387 
	C262.071472,144.892410 273.573486,145.891449 285.959717,146.967987 
	C290.645691,147.250076 295.331665,147.532166 300.862732,147.934006 
	C304.611938,148.250122 308.361115,148.566223 312.890808,149.069427 
	C315.601471,149.334656 318.312164,149.599884 321.850555,150.057068 
	C326.604553,150.376083 331.553497,149.986420 336.054749,151.224396 
	C340.109741,152.339645 343.015839,151.103409 346.212341,149.432007 
	C353.442719,145.651352 360.715759,141.951111 367.910034,138.103333 
	C370.757294,136.580521 373.441406,134.752655 376.199799,133.063690 
	C376.083649,132.653519 375.967499,132.243347 375.851349,131.833176 
	C359.224884,130.536575 342.598419,129.239990 326.003876,128.010742 
	C326.003876,128.010742 326.080261,127.997574 325.912567,127.511879 
	C325.616302,127.395378 325.320038,127.278870 324.451080,127.158333 
	C323.987640,127.487915 323.524200,127.817497 322.314697,127.784599 
	C316.882202,127.253067 311.449738,126.721527 305.170715,126.053528 
	C301.794739,125.755081 298.418793,125.456627 294.337585,124.765938 
	C290.966858,124.119362 287.596161,123.472786 284.575500,122.291191 
	C293.263702,116.272278 302.540985,111.007523 310.815704,102.573204 
	C305.435211,99.747185 300.929260,97.511055 296.551605,95.047043 
	C291.480774,92.192863 286.588043,89.020561 281.499725,86.199677 
	C274.624146,82.387939 267.318939,79.265755 260.757324,74.989540 
	C243.320358,63.625877 243.170197,63.423649 224.819244,72.523392 
	C223.925735,72.966454 223.028305,73.401787 222.138901,73.852936 
	C205.698898,82.192101 189.259857,90.533134 172.884460,98.980835 
	C172.884460,98.980835 172.995850,98.928284 172.393082,98.979858 
	C171.907318,99.303818 171.421539,99.627785 170.985260,99.987808 
	C170.985260,99.987808 170.996613,99.927628 170.394272,99.987022 
M279.968689,286.286865 
	C279.933777,285.194763 279.898834,284.102661 279.948364,282.360901 
	C279.982849,281.925262 280.017334,281.489624 280.656860,280.757202 
	C282.365936,278.785980 283.871552,276.575958 285.835114,274.903503 
	C288.342346,272.767944 291.219208,271.066406 294.256744,269.771881 
	C308.130890,279.361664 321.914307,289.087372 335.939362,298.451141 
	C339.718750,300.974487 343.477631,304.735382 349.096375,300.890137 
	C354.223236,297.381561 360.101379,294.984070 365.580383,291.973114 
	C371.026031,288.980438 376.386932,285.833527 382.435760,282.383087 
	C375.648438,278.309540 369.371521,274.542358 362.742096,270.191986 
	C353.536804,264.408813 344.306213,258.665375 335.135681,252.827621 
	C329.612640,249.311783 324.183044,245.649139 318.512451,241.921646 
	C322.469269,237.156403 325.820129,233.120956 329.739716,228.757156 
	C334.892700,223.194138 340.045654,217.631134 345.765564,211.744400 
	C348.891174,208.512939 352.016785,205.281479 355.700592,201.841156 
	C358.166443,198.936829 360.632294,196.032501 363.689880,192.813019 
	C367.497498,188.560562 371.305145,184.308121 375.701782,179.759918 
	C377.882477,177.520996 380.063202,175.282089 382.902740,172.504028 
	C382.931763,163.376480 382.959167,154.248947 382.991119,145.121399 
	C382.998474,143.022156 383.189270,140.713120 379.355682,143.100510 
	C367.903687,149.107361 356.451660,155.114227 344.376801,161.008804 
	C343.876099,161.313461 343.375427,161.618118 342.428986,162.095825 
	C342.154602,162.285553 341.972717,162.541138 341.291870,163.206589 
	C337.481201,168.418579 333.670563,173.630569 329.250854,179.149811 
	C326.454102,182.728073 323.657318,186.306335 320.273010,190.220428 
	C317.800323,193.408676 315.327667,196.596924 312.275238,200.171173 
	C308.780640,204.732391 305.286041,209.293610 301.310333,214.131409 
	C300.823944,214.680679 300.337555,215.229935 299.332092,216.134476 
	C299.153839,216.727890 298.975586,217.321304 298.232605,218.259720 
	C292.468079,225.141739 286.703583,232.023743 280.150726,238.555832 
	C280.085388,236.583145 279.968445,234.610611 279.963318,232.637772 
	C279.936676,222.412811 279.975922,212.187271 279.841156,201.963928 
	C279.832764,201.326736 281.518707,197.701691 277.300140,200.240952 
	C273.988251,202.082977 270.655792,203.889130 267.369080,205.775024 
	C261.556000,209.110550 255.770737,212.494598 249.283569,216.396332 
	C249.185120,218.051376 249.001053,219.706406 249.000702,221.361465 
	C248.991959,263.666931 249.001007,305.972412 249.024857,348.277893 
	C249.025192,348.849152 249.255325,349.420258 249.519531,350.648407 
	C250.770401,349.494965 251.553741,348.772644 252.922043,347.733093 
	C259.304810,344.428253 265.778381,341.283600 272.026520,337.741272 
	C274.593597,336.285889 276.674774,333.973541 279.788971,331.690216 
	C279.820343,316.827423 279.851715,301.964600 279.968689,286.286865 
M101.305573,151.693604 
	C101.184052,153.184799 100.957390,154.675934 100.956474,156.167206 
	C100.936539,188.657211 100.923256,221.147247 100.985802,253.637146 
	C100.989761,255.689178 101.622314,257.739990 101.973961,260.750092 
	C101.976692,264.547211 101.851509,268.351135 102.052536,272.137726 
	C102.121513,273.437164 102.642906,275.353577 103.574913,275.866516 
	C112.317726,280.678192 121.194565,285.246368 130.654770,289.338196 
	C130.772232,284.592834 130.785065,279.841858 131.037827,275.103729 
	C131.270676,270.738739 131.761337,266.387543 132.699936,262.384888 
	C137.647827,265.352661 142.520020,268.456512 147.559082,271.260437 
	C158.646454,277.429779 169.813995,283.455170 180.956619,289.524994 
	C189.788757,294.336212 198.632446,299.126251 207.932693,304.771393 
	C207.952011,313.029602 207.922958,321.288513 208.035095,329.545441 
	C208.055344,331.036285 208.655792,332.519226 209.419861,334.531769 
	C218.247818,339.404663 227.075775,344.277557 236.497620,349.547729 
	C237.015366,348.051636 237.970993,346.558990 237.982910,345.058868 
	C238.097168,330.683533 237.951584,316.305939 238.090515,301.931030 
	C238.172974,293.399689 238.848511,284.872284 238.859787,276.342590 
	C238.870834,267.980133 238.286102,259.618683 238.131042,251.253677 
	C237.956985,241.863724 237.971420,232.470261 237.947784,222.248734 
	C238.682495,218.373138 236.815643,216.020874 233.546326,214.270233 
	C223.050323,208.649887 212.572830,202.993225 202.148514,197.241226 
	C194.332169,192.928253 186.716705,188.241150 178.815613,184.094452 
	C169.820694,179.373688 160.542587,175.194946 151.508484,170.545700 
	C142.945236,166.138794 134.495499,161.505173 126.076057,156.826889 
	C119.089615,152.944839 112.235085,148.825897 105.276672,144.892288 
	C104.515526,144.462006 103.117134,144.126038 102.609322,144.517715 
	C101.807274,145.136368 101.144730,146.389359 101.091110,147.408981 
	C101.025505,148.656677 101.648895,149.940628 101.305573,151.693604 
z"/>
<path fill="#242C43" opacity="1.000000" stroke="none" 
	d="
M235.903717,349.150452 
	C227.075775,344.277557 218.247818,339.404663 209.216187,333.799683 
	C209.000534,325.122162 209.077225,317.174866 208.908447,309.232758 
	C208.870651,307.454346 207.972870,305.694244 207.471008,303.925659 
	C198.632446,299.126251 189.788757,294.336212 180.956619,289.524994 
	C169.813995,283.455170 158.646454,277.429779 147.559082,271.260437 
	C142.520020,268.456512 137.647827,265.352661 132.085480,262.403931 
	C130.979675,264.268219 130.103806,266.105347 130.064804,267.960083 
	C129.911270,275.265381 130.020767,282.576172 130.032654,289.884949 
	C121.194565,285.246368 112.317726,280.678192 103.574913,275.866516 
	C102.642906,275.353577 102.121513,273.437164 102.052536,272.137726 
	C101.851509,268.351135 101.976692,264.547211 101.899582,259.819275 
	C101.931587,245.594208 102.037971,232.299973 102.494949,219.100235 
	C106.832924,220.289337 110.902794,221.161713 114.764442,222.595062 
	C116.180008,223.120499 118.302879,225.379807 118.042099,226.153305 
	C116.900879,229.538162 117.714294,231.844299 120.246414,234.135040 
	C120.953659,234.774872 120.794540,236.480698 120.846115,237.705383 
	C120.894333,238.850357 120.694885,240.005768 120.604446,241.156586 
	C122.411583,240.833267 123.123451,240.108337 123.770172,239.329330 
	C124.710701,238.196365 125.604279,237.024429 126.517883,235.869125 
	C127.565422,237.268448 128.853302,238.555038 129.580307,240.104736 
	C130.109787,241.233398 129.653259,242.791122 130.061050,244.016190 
	C131.787628,249.203140 133.673050,254.337234 135.386841,259.170349 
	C139.389008,257.232666 142.584000,254.303543 145.446136,254.598984 
	C150.768509,255.148376 156.285690,256.850098 161.021255,259.382202 
	C169.632370,263.986603 177.953888,267.337677 187.473755,262.001343 
	C187.787689,262.323853 187.928162,262.536102 188.212799,262.989594 
	C188.672028,263.460388 188.949661,263.714661 189.531693,263.995819 
	C190.565460,264.362640 191.294815,264.702637 192.181763,265.204987 
	C192.556595,265.577820 192.788422,265.770721 193.056976,265.880219 
	C193.079117,265.814331 193.211090,265.858032 193.206909,266.229004 
	C195.612610,273.211212 199.200623,274.969849 206.476059,272.959900 
	C207.204742,272.614410 207.600388,272.251587 208.012970,271.956024 
	C208.029922,272.023285 207.895432,272.057343 208.254654,271.814026 
	C208.726303,261.143066 208.888443,250.715515 208.909225,240.287689 
	C208.913376,238.202286 208.378479,236.115845 207.762421,233.903442 
	C201.953033,230.843185 196.473389,227.909348 191.048950,224.619843 
	C193.388245,219.717941 197.648178,218.368103 202.144958,218.104034 
	C207.945404,217.763382 213.781128,218.055099 219.601089,218.005615 
	C224.669128,217.962540 227.753372,220.015762 228.406967,225.380508 
	C228.935013,229.714767 229.893250,233.996597 230.765015,238.887146 
	C233.427002,237.649292 235.197556,236.825974 236.975082,236.471024 
	C236.985611,271.729187 237.012512,306.518982 236.945679,341.308655 
	C236.940659,343.923248 236.266708,346.536560 235.903717,349.150452 
z"/>
<path fill="#262D49" opacity="1.000000" stroke="none" 
	d="
M187.337723,261.866333 
	C177.953888,267.337677 169.632370,263.986603 161.021255,259.382202 
	C156.285690,256.850098 150.768509,255.148376 145.446136,254.598984 
	C142.584000,254.303543 139.389008,257.232666 135.386841,259.170349 
	C133.673050,254.337234 131.787628,249.203140 130.061050,244.016190 
	C129.653259,242.791122 130.109787,241.233398 129.580307,240.104736 
	C128.853302,238.555038 127.565422,237.268448 126.517883,235.869125 
	C125.604279,237.024429 124.710701,238.196365 123.770172,239.329330 
	C123.123451,240.108337 122.411583,240.833267 120.604446,241.156586 
	C120.694885,240.005768 120.894333,238.850357 120.846115,237.705383 
	C120.794540,236.480698 120.953659,234.774872 120.246414,234.135040 
	C117.714294,231.844299 116.900879,229.538162 118.042099,226.153305 
	C118.302879,225.379807 116.180008,223.120499 114.764442,222.595062 
	C110.902794,221.161713 106.832924,220.289337 102.434570,218.634537 
	C102.007202,195.785873 101.990784,173.497375 101.974365,151.208893 
	C101.648895,149.940628 101.025505,148.656677 101.091110,147.408981 
	C101.144730,146.389359 101.807274,145.136368 102.609322,144.517715 
	C103.117134,144.126038 104.515526,144.462006 105.276672,144.892288 
	C112.235085,148.825897 119.089615,152.944839 126.076057,156.826889 
	C134.495499,161.505173 142.945236,166.138794 151.508484,170.545700 
	C160.542587,175.194946 169.820694,179.373688 178.815613,184.094452 
	C186.716705,188.241150 194.332169,192.928253 202.148514,197.241226 
	C212.572830,202.993225 223.050323,208.649887 233.546326,214.270233 
	C236.815643,216.020874 238.682495,218.373138 237.754623,223.002457 
	C237.361389,225.842346 237.161301,227.928528 236.766815,230.107330 
	C236.703384,230.796005 236.834351,231.392014 236.971268,232.389465 
	C236.974182,233.861465 236.971130,234.932068 236.968094,236.002655 
	C235.197556,236.825974 233.427002,237.649292 230.765015,238.887146 
	C229.893250,233.996597 228.935013,229.714767 228.406967,225.380508 
	C227.753372,220.015762 224.669128,217.962540 219.601089,218.005615 
	C213.781128,218.055099 207.945404,217.763382 202.144958,218.104034 
	C197.648178,218.368103 193.388245,219.717941 190.711136,224.530411 
	C171.145370,214.154068 151.972626,203.511505 132.666565,192.651917 
	C132.043777,192.342575 131.554352,192.250229 131.012970,191.784439 
	C130.099884,190.131271 129.270081,188.826111 128.301163,187.633972 
	C128.241913,187.561096 126.546669,188.344452 126.514175,188.794510 
	C126.053970,195.167648 121.845695,201.398209 126.137047,208.030731 
	C127.131905,209.568344 127.030182,212.478897 126.321754,214.333115 
	C124.023018,220.349762 124.773865,222.566269 130.894165,225.396271 
	C131.255569,227.811615 131.560989,229.826691 132.123016,232.094513 
	C140.090469,236.566666 147.772690,240.839508 155.519150,244.992493 
	C166.099731,250.664902 176.729202,256.246063 187.337723,261.866333 
z"/>
<path fill="#272E4C" opacity="1.000000" stroke="none" 
	d="
M267.764801,107.018494 
	C260.652466,103.104553 253.649551,98.965263 246.356171,95.424255 
	C244.362411,94.456268 241.108322,94.464928 239.093094,95.419586 
	C224.526306,102.320221 210.129074,109.578812 195.291031,116.467499 
	C192.780975,113.825844 190.979782,111.005623 188.467117,109.147469 
	C183.458313,105.443382 178.058762,102.267715 172.820602,98.873779 
	C189.259857,90.533134 205.698898,82.192101 222.138901,73.852936 
	C223.028305,73.401787 223.925735,72.966454 224.819244,72.523392 
	C243.170197,63.423649 243.320358,63.625877 260.757324,74.989540 
	C267.318939,79.265755 274.624146,82.387939 281.499725,86.199677 
	C286.588043,89.020561 291.480774,92.192863 296.551605,95.047043 
	C300.929260,97.511055 305.435211,99.747185 310.815704,102.573204 
	C302.540985,111.007523 293.263702,116.272278 283.994446,122.575928 
	C282.621368,123.027122 281.829376,123.193581 280.764099,123.354019 
	C279.988586,123.550354 279.486298,123.752708 278.656433,123.977325 
	C277.896637,124.070114 277.464386,124.140640 276.602722,124.174911 
	C274.450714,124.059738 272.728119,123.980820 270.887268,123.546387 
	C270.179108,120.175461 269.569702,117.163689 269.005554,114.143471 
	C268.562958,111.773895 268.176300,109.393875 267.764801,107.018494 
z"/>
<path fill="#282D4B" opacity="1.000000" stroke="none" 
	d="
M171.954544,168.018997 
	C171.954544,168.018997 171.498749,168.096878 171.214874,167.803406 
	C169.748077,165.737335 168.408173,164.048599 167.408798,162.177933 
	C162.525696,153.037796 164.516525,142.908234 163.508530,133.214890 
	C163.449814,132.650360 165.355011,131.881592 166.346237,131.207855 
	C166.661179,132.654541 166.518494,134.971130 167.361252,135.414490 
	C176.659973,140.306198 186.187927,144.761368 195.498367,149.631836 
	C203.088867,153.602554 210.415085,158.075302 217.956039,162.144638 
	C227.008759,167.029770 236.223038,171.616333 245.259720,176.530106 
	C254.017090,181.292023 262.637939,186.304947 272.104004,191.651093 
	C266.343567,194.869583 260.571686,197.121582 256.002380,200.848099 
	C246.208878,208.835236 237.451782,205.193527 228.305939,199.989197 
	C218.965149,194.673950 209.413956,189.729797 200.023010,184.500824 
	C192.820923,180.490631 185.724762,176.290222 178.230942,171.633606 
	C175.905106,170.068192 173.929825,169.043594 171.954544,168.018997 
z"/>
<path fill="#272E47" opacity="1.000000" stroke="none" 
	d="
M166.512360,131.156189 
	C165.355011,131.881592 163.449814,132.650360 163.508530,133.214890 
	C164.516525,142.908234 162.525696,153.037796 167.408798,162.177933 
	C168.408173,164.048599 169.748077,165.737335 170.995728,167.877106 
	C165.175964,165.428146 159.219711,162.751236 153.423706,159.763458 
	C144.615997,155.223190 135.874542,150.549011 127.189651,145.777527 
	C119.980843,141.816986 112.894234,137.634033 104.590706,132.884506 
	C106.795799,131.498093 108.177322,130.536972 109.647903,129.740219 
	C110.505051,129.275803 111.556007,129.177185 112.432800,128.739685 
	C128.748154,120.598969 145.050430,112.431999 161.767029,104.489883 
	C163.599442,105.922470 165.020264,107.135727 166.441071,108.348984 
	C167.356705,106.498528 168.344315,104.678215 169.140427,102.777687 
	C169.355667,102.263863 168.990921,101.507080 168.892395,100.861816 
	C168.892395,100.861816 168.955185,100.892395 169.217453,100.836624 
	C169.985352,100.496445 170.490982,100.212036 170.996613,99.927628 
	C170.996613,99.927628 170.985260,99.987808 171.236618,99.882362 
	C171.990601,99.494041 172.493225,99.211159 172.995850,98.928284 
	C172.995850,98.928284 172.884460,98.980835 172.852539,98.927307 
	C178.058762,102.267715 183.458313,105.443382 188.467117,109.147469 
	C190.979782,111.005623 192.780975,113.825844 194.955276,116.557701 
	C194.599762,116.932823 194.192902,116.961220 193.277252,117.165314 
	C192.516769,117.575966 192.265091,117.810936 192.013428,118.045914 
	C192.013428,118.045914 192.066422,118.017754 191.752777,118.081078 
	C190.632431,118.733170 189.825729,119.321938 189.019043,119.910706 
	C184.965546,121.961815 180.912064,124.012917 176.187347,125.947128 
	C172.162720,124.440048 170.100571,125.110573 170.168777,129.180908 
	C170.168777,129.180908 170.029236,129.171234 169.852264,129.254761 
	C169.436920,129.547928 169.211548,129.770691 168.999161,130.006607 
	C168.999161,130.006607 168.672470,130.064529 168.272430,130.205353 
	C167.583984,130.560913 167.295578,130.775650 167.007172,130.990372 
	C167.007172,130.990372 166.678467,131.104507 166.512360,131.156189 
z"/>
<path fill="#234A79" opacity="1.000000" stroke="none" 
	d="
M280.939056,238.905762 
	C286.703583,232.023743 292.468079,225.141739 298.704895,217.852280 
	C299.401855,216.889633 299.626526,216.334427 299.851166,215.779205 
	C300.337555,215.229935 300.823944,214.680679 301.902466,214.154160 
	C305.934875,215.267075 309.342133,216.478973 312.822357,217.421661 
	C319.739716,219.295349 325.431580,222.799561 329.170959,229.085510 
	C325.820129,233.120956 322.469269,237.156403 318.512451,241.921646 
	C324.183044,245.649139 329.612640,249.311783 335.135681,252.827621 
	C344.306213,258.665375 353.536804,264.408813 362.703552,270.816620 
	C361.984100,271.884369 361.276794,272.748535 360.626160,272.707794 
	C350.058167,272.045715 339.491852,271.332947 328.943237,270.422028 
	C327.849854,270.327637 326.313293,269.105957 325.929077,268.059662 
	C323.122803,260.417755 314.937073,259.465332 309.707825,254.870132 
	C308.875824,254.139008 306.196472,254.063553 305.591888,254.753937 
	C301.522736,259.400665 297.783142,264.335999 293.936798,269.177826 
	C291.219208,271.066406 288.342346,272.767944 285.835114,274.903503 
	C283.871552,276.575958 282.365936,278.785980 280.291931,280.486023 
	C279.650513,276.775604 279.165680,273.338104 279.136871,269.896790 
	C279.052917,259.880035 279.151459,249.861725 279.481079,239.881622 
	C280.168823,239.581390 280.553955,239.243576 280.939056,238.905762 
z"/>
<path fill="#262E4B" opacity="1.000000" stroke="none" 
	d="
M279.178406,239.844025 
	C279.151459,249.861725 279.052917,259.880035 279.136871,269.896790 
	C279.165680,273.338104 279.650513,276.775604 279.989441,280.634399 
	C280.017334,281.489624 279.982849,281.925262 279.651917,282.843567 
	C279.260956,284.564636 279.166443,285.803070 279.044189,287.455353 
	C278.926147,289.246338 278.835846,290.623505 278.348938,291.998535 
	C273.824249,290.523071 269.116791,289.843567 265.722015,287.365631 
	C261.896027,284.572968 260.987732,285.810699 259.270874,289.127533 
	C256.801575,293.898071 253.789963,298.387909 251.008026,302.529175 
	C251.005280,276.030670 251.025421,250.000458 250.966583,223.970428 
	C250.961426,221.690552 250.438004,219.411850 250.120804,216.812500 
	C250.048798,216.281036 250.011307,216.069702 249.973831,215.858368 
	C255.770737,212.494598 261.556000,209.110550 267.369080,205.775024 
	C270.655792,203.889130 273.988251,202.082977 277.947388,200.389954 
	C278.760254,202.340988 279.058319,204.142181 279.069763,205.945206 
	C279.141541,217.244583 279.149384,228.544373 279.178406,239.844025 
z"/>
<path fill="#254671" opacity="1.000000" stroke="none" 
	d="
M294.096771,269.474854 
	C297.783142,264.335999 301.522736,259.400665 305.591888,254.753937 
	C306.196472,254.063553 308.875824,254.139008 309.707825,254.870132 
	C314.937073,259.465332 323.122803,260.417755 325.929077,268.059662 
	C326.313293,269.105957 327.849854,270.327637 328.943237,270.422028 
	C339.491852,271.332947 350.058167,272.045715 360.626160,272.707794 
	C361.276794,272.748535 361.984100,271.884369 362.879822,271.108215 
	C369.371521,274.542358 375.648438,278.309540 382.435760,282.383087 
	C376.386932,285.833527 371.026031,288.980438 365.580383,291.973114 
	C360.101379,294.984070 354.223236,297.381561 349.096375,300.890137 
	C343.477631,304.735382 339.718750,300.974487 335.939362,298.451141 
	C321.914307,289.087372 308.130890,279.361664 294.096771,269.474854 
z"/>
<path fill="#272E47" opacity="1.000000" stroke="none" 
	d="
M251.009827,302.997559 
	C253.789963,298.387909 256.801575,293.898071 259.270874,289.127533 
	C260.987732,285.810699 261.896027,284.572968 265.722015,287.365631 
	C269.116791,289.843567 273.824249,290.523071 278.409973,292.463928 
	C278.904083,305.971252 278.940552,319.011139 278.976990,332.050995 
	C276.674774,333.973541 274.593597,336.285889 272.026520,337.741272 
	C265.778381,341.283600 259.304810,344.428253 252.293091,347.760803 
	C251.431335,347.727783 251.198517,347.667023 250.974945,347.170410 
	C250.992706,332.155609 251.001266,317.576569 251.009827,302.997559 
z"/>
<path fill="#204A7E" opacity="1.000000" stroke="none" 
	d="
M271.005524,123.901901 
	C272.728119,123.980820 274.450714,124.059738 276.489716,124.479202 
	C274.272644,127.310455 272.094391,130.393860 269.132202,132.169220 
	C262.852570,135.932877 256.164276,139.014709 249.270935,142.310562 
	C238.819275,142.088898 228.730453,142.136124 218.667328,141.650482 
	C215.720673,141.508270 212.847137,139.851151 209.940079,138.888367 
	C221.716797,132.713760 233.493530,126.539139 245.814087,120.522026 
	C254.573807,121.753647 262.789673,122.827774 271.005524,123.901901 
z"/>
<path fill="#0C6CAD" opacity="1.000000" stroke="none" 
	d="
M382.243927,173.043182 
	C380.063202,175.282089 377.882477,177.520996 375.098511,179.740601 
	C373.728699,179.093796 372.542511,178.611969 372.265625,177.814438 
	C370.782074,173.541763 367.351746,173.350128 363.585114,172.638428 
	C357.246490,171.440765 351.010559,169.526199 344.901733,167.419373 
	C343.534424,166.947800 342.870911,164.435394 341.883392,162.862564 
	C341.972717,162.541138 342.154602,162.285553 342.931702,161.952667 
	C343.956146,161.580048 344.477905,161.350571 344.999664,161.121094 
	C356.451660,155.114227 367.903687,149.107361 380.038269,143.084045 
	C381.226532,144.844437 382.134430,146.613556 382.168884,148.399521 
	C382.327332,156.611496 382.241882,164.828186 382.243927,173.043182 
z"/>
<path fill="#1F548C" opacity="1.000000" stroke="none" 
	d="
M249.643570,142.376129 
	C256.164276,139.014709 262.852570,135.932877 269.132202,132.169220 
	C272.094391,130.393860 274.272644,127.310455 276.919128,124.515457 
	C277.464386,124.140640 277.896637,124.070114 278.844788,124.077461 
	C279.919586,123.890228 280.478455,123.625130 281.037354,123.360031 
	C281.829376,123.193581 282.621368,123.027122 283.819397,122.843430 
	C287.596161,123.472786 290.966858,124.119362 294.637726,125.328850 
	C291.650391,132.891342 288.362946,139.890915 285.075500,146.890488 
	C273.573486,145.891449 262.071472,144.892410 250.185638,143.379196 
	C249.749054,142.702042 249.696320,142.539078 249.643570,142.376129 
z"/>
<path fill="#1278B6" opacity="1.000000" stroke="none" 
	d="
M325.971954,127.943390 
	C342.598419,129.239990 359.224884,130.536575 375.851349,131.833176 
	C375.967499,132.243347 376.083649,132.653519 376.199799,133.063690 
	C373.441406,134.752655 370.757294,136.580521 367.910034,138.103333 
	C360.715759,141.951111 353.442719,145.651352 346.212341,149.432007 
	C343.015839,151.103409 340.109741,152.339645 336.054749,151.224396 
	C331.553497,149.986420 326.604553,150.376083 321.777405,149.787292 
	C327.133453,149.755066 330.782867,146.124771 334.758728,143.347427 
	C338.067810,141.035889 338.051636,137.672913 337.352051,133.968216 
	C336.698883,130.509338 334.364075,130.092102 331.653870,129.600632 
	C329.723206,129.250534 327.863373,128.509811 325.971954,127.943390 
z"/>
<path fill="#225084" opacity="1.000000" stroke="none" 
	d="
M329.455353,228.921341 
	C325.431580,222.799561 319.739716,219.295349 312.822357,217.421661 
	C309.342133,216.478973 305.934875,215.267075 302.143005,214.015869 
	C305.286041,209.293610 308.780640,204.732391 312.648224,200.343750 
	C315.055389,201.935669 316.900391,203.938599 319.157471,204.670273 
	C327.584198,207.401932 337.160980,206.123764 344.715454,211.996262 
	C344.827423,212.083313 345.035431,212.046890 345.198608,212.068115 
	C340.045654,217.631134 334.892700,223.194138 329.455353,228.921341 
z"/>
<path fill="#1E5890" opacity="1.000000" stroke="none" 
	d="
M345.482086,211.906250 
	C345.035431,212.046890 344.827423,212.083313 344.715454,211.996262 
	C337.160980,206.123764 327.584198,207.401932 319.157471,204.670273 
	C316.900391,203.938599 315.055389,201.935669 312.938110,200.150757 
	C315.327667,196.596924 317.800323,193.408676 320.923279,190.219147 
	C329.551880,191.736923 337.478149,193.906281 345.526459,194.549850 
	C351.030640,194.990005 353.631653,197.373016 355.142365,202.050018 
	C352.016785,205.281479 348.891174,208.512939 345.482086,211.906250 
z"/>
<path fill="#1166A4" opacity="1.000000" stroke="none" 
	d="
M341.587646,163.034576 
	C342.870911,164.435394 343.534424,166.947800 344.901733,167.419373 
	C351.010559,169.526199 357.246490,171.440765 363.585114,172.638428 
	C367.351746,173.350128 370.782074,173.541763 372.265625,177.814438 
	C372.542511,178.611969 373.728699,179.093796 374.804016,179.888489 
	C371.305145,184.308121 367.497498,188.560562 363.357422,192.579773 
	C361.507416,184.506927 354.044037,179.836594 344.943298,181.368958 
	C339.541351,182.278519 334.442352,182.362320 329.859924,178.842560 
	C333.670563,173.630569 337.481201,168.418579 341.587646,163.034576 
z"/>
<path fill="#175F9B" opacity="1.000000" stroke="none" 
	d="
M329.555389,178.996185 
	C334.442352,182.362320 339.541351,182.278519 344.943298,181.368958 
	C354.044037,179.836594 361.507416,184.506927 363.061584,192.737366 
	C360.632294,196.032501 358.166443,198.936829 355.421478,201.945587 
	C353.631653,197.373016 351.030640,194.990005 345.526459,194.549850 
	C337.478149,193.906281 329.551880,191.736923 321.217041,190.051239 
	C323.657318,186.306335 326.454102,182.728073 329.555389,178.996185 
z"/>
<path fill="#1166A4" opacity="1.000000" stroke="none" 
	d="
M306.017242,126.189987 
	C311.449738,126.721527 316.882202,127.253067 322.822266,128.326889 
	C325.250061,138.659439 321.063599,146.127167 312.110321,148.882324 
	C308.361115,148.566223 304.611938,148.250122 300.547974,147.561188 
	C300.987701,146.132416 301.646637,144.989899 302.512421,144.034897 
	C307.278992,138.777283 309.591736,133.071014 306.017242,126.189987 
z"/>
<path fill="#30416C" opacity="1.000000" stroke="none" 
	d="
M249.270935,142.310562 
	C249.696320,142.539078 249.749054,142.702042 249.854797,143.117874 
	C243.403625,146.746521 236.907867,150.138657 230.387314,153.482437 
	C229.261032,154.060013 227.702087,155.153793 226.897141,154.788376 
	C218.575012,151.010498 210.366714,146.981873 201.075867,142.518112 
	C204.537979,141.027084 206.881241,140.017914 209.582306,138.948547 
	C212.847137,139.851151 215.720673,141.508270 218.667328,141.650482 
	C228.730453,142.136124 238.819275,142.088898 249.270935,142.310562 
z"/>
<path fill="#175F9B" opacity="1.000000" stroke="none" 
	d="
M305.593994,126.121758 
	C309.591736,133.071014 307.278992,138.777283 302.512421,144.034897 
	C301.646637,144.989899 300.987701,146.132416 300.125427,147.501312 
	C295.331665,147.532166 290.645691,147.250076 285.517609,146.929230 
	C288.362946,139.890915 291.650391,132.891342 294.990356,125.524971 
	C298.418793,125.456627 301.794739,125.755081 305.593994,126.121758 
z"/>
<path fill="#0C6CAD" opacity="1.000000" stroke="none" 
	d="
M312.500549,148.975876 
	C321.063599,146.127167 325.250061,138.659439 323.195312,128.508118 
	C323.524200,127.817497 323.987640,127.487915 324.908142,127.306168 
	C325.604340,127.634193 325.842682,127.815376 326.080261,127.997574 
	C326.080261,127.997574 326.003876,128.010742 325.987915,127.977066 
	C327.863373,128.509811 329.723206,129.250534 331.653870,129.600632 
	C334.364075,130.092102 336.698883,130.509338 337.352051,133.968216 
	C338.051636,137.672913 338.067810,141.035889 334.758728,143.347427 
	C330.782867,146.124771 327.133453,149.755066 321.363525,149.691315 
	C318.312164,149.599884 315.601471,149.334656 312.500549,148.975876 
z"/>
<path fill="#2B3354" opacity="1.000000" stroke="none" 
	d="
M270.887268,123.546387 
	C262.789673,122.827774 254.573807,121.753647 246.132385,120.395355 
	C253.126389,115.954079 260.345917,111.796967 267.665131,107.329178 
	C268.176300,109.393875 268.562958,111.773895 269.005554,114.143471 
	C269.569702,117.163689 270.179108,120.175461 270.887268,123.546387 
z"/>
<path fill="#2B3354" opacity="1.000000" stroke="none" 
	d="
M236.961227,230.014694 
	C237.161301,227.928528 237.361389,225.842346 237.732666,223.417252 
	C237.971420,232.470261 237.956985,241.863724 238.131042,251.253677 
	C238.286102,259.618683 238.870834,267.980133 238.859787,276.342590 
	C238.848511,284.872284 238.172974,293.399689 238.090515,301.931030 
	C237.951584,316.305939 238.097168,330.683533 237.982910,345.058868 
	C237.970993,346.558990 237.015366,348.051636 236.200668,349.349091 
	C236.266708,346.536560 236.940659,343.923248 236.945679,341.308655 
	C237.012512,306.518982 236.985611,271.729187 236.975082,236.471024 
	C236.971130,234.932068 236.974182,233.861465 236.975128,232.060669 
	C236.969101,230.891861 236.965164,230.453278 236.961227,230.014694 
z"/>
<path fill="#4B5063" opacity="1.000000" stroke="none" 
	d="
M250.965714,347.606232 
	C251.198517,347.667023 251.431335,347.727783 252.000610,347.919434 
	C251.553741,348.772644 250.770401,349.494965 249.519531,350.648407 
	C249.255325,349.420258 249.025192,348.849152 249.024857,348.277893 
	C249.001007,305.972412 248.991959,263.666931 249.000702,221.361465 
	C249.001053,219.706406 249.185120,218.051376 249.628693,216.127350 
	C250.011307,216.069702 250.048798,216.281036 250.075714,217.266418 
	C250.001129,259.656982 249.925079,301.273529 249.919510,342.890076 
	C249.919296,344.462097 250.601517,346.034180 250.965714,347.606232 
z"/>
<path fill="#A3A5B0" opacity="1.000000" stroke="none" 
	d="
M101.639969,151.451248 
	C101.990784,173.497375 102.007202,195.785873 102.083984,218.540054 
	C102.037971,232.299973 101.931587,245.594208 101.893814,259.339905 
	C101.622314,257.739990 100.989761,255.689178 100.985802,253.637146 
	C100.923256,221.147247 100.936539,188.657211 100.956474,156.167206 
	C100.957390,154.675934 101.184052,153.184799 101.639969,151.451248 
z"/>
<path fill="#A3A5B0" opacity="1.000000" stroke="none" 
	d="
M279.382996,331.870605 
	C278.940552,319.011139 278.904083,305.971252 278.806610,292.466003 
	C278.835846,290.623505 278.926147,289.246338 279.247955,287.457275 
	C279.479492,287.045380 279.883057,287.101807 279.883057,287.101807 
	C279.851715,301.964600 279.820343,316.827423 279.382996,331.870605 
z"/>
<path fill="#A3A5B0" opacity="1.000000" stroke="none" 
	d="
M279.481049,239.881622 
	C279.149384,228.544373 279.141541,217.244583 279.069763,205.945206 
	C279.058319,204.142181 278.760254,202.340988 278.265015,200.260986 
	C281.518707,197.701691 279.832764,201.326736 279.841156,201.963928 
	C279.975922,212.187271 279.936676,222.412811 279.963318,232.637772 
	C279.968445,234.610611 280.085388,236.583145 280.544891,238.730804 
	C280.553955,239.243576 280.168823,239.581390 279.481049,239.881622 
z"/>
<path fill="#272E4C" opacity="1.000000" stroke="none" 
	d="
M168.554169,100.934860 
	C168.990921,101.507080 169.355667,102.263863 169.140427,102.777687 
	C168.344315,104.678215 167.356705,106.498528 166.441071,108.348984 
	C165.020264,107.135727 163.599442,105.922470 162.094971,104.371201 
	C164.079559,103.024757 166.147751,102.016327 168.554169,100.934860 
z"/>
<path fill="#A3A5B0" opacity="1.000000" stroke="none" 
	d="
M382.573334,172.773605 
	C382.241882,164.828186 382.327332,156.611496 382.168884,148.399521 
	C382.134430,146.613556 381.226532,144.844437 380.334045,142.878220 
	C383.189270,140.713120 382.998474,143.022156 382.991119,145.121399 
	C382.959167,154.248947 382.931763,163.376480 382.573334,172.773605 
z"/>
<path fill="#888A99" opacity="1.000000" stroke="none" 
	d="
M207.701843,304.348541 
	C207.972870,305.694244 208.870651,307.454346 208.908447,309.232758 
	C209.077225,317.174866 209.000534,325.122162 209.000427,333.536713 
	C208.655792,332.519226 208.055344,331.036285 208.035095,329.545441 
	C207.922958,321.288513 207.952011,313.029602 207.701843,304.348541 
z"/>
<path fill="#2B3354" opacity="1.000000" stroke="none" 
	d="
M130.343719,289.611572 
	C130.020767,282.576172 129.911270,275.265381 130.064804,267.960083 
	C130.103806,266.105347 130.979675,264.268219 131.804718,262.226624 
	C131.761337,266.387543 131.270676,270.738739 131.037827,275.103729 
	C130.785065,279.841858 130.772232,284.592834 130.343719,289.611572 
z"/>
<path fill="#282D4B" opacity="1.000000" stroke="none" 
	d="
M170.502625,129.120132 
	C170.100571,125.110573 172.162720,124.440048 175.839203,126.035301 
	C174.387009,127.180031 172.611725,128.119690 170.502625,129.120132 
z"/>
<path fill="#272E47" opacity="1.000000" stroke="none" 
	d="
M172.133499,168.296982 
	C173.929825,169.043594 175.905106,170.068192 177.940338,171.441803 
	C176.104340,170.718872 174.208405,169.646927 172.133499,168.296982 
z"/>
<path fill="#272E47" opacity="1.000000" stroke="none" 
	d="
M279.925873,286.694336 
	C279.883057,287.101807 279.479492,287.045380 279.275696,287.043457 
	C279.166443,285.803070 279.260956,284.564636 279.609680,283.168396 
	C279.898834,284.102661 279.933777,285.194763 279.925873,286.694336 
z"/>
<path fill="#272E4C" opacity="1.000000" stroke="none" 
	d="
M189.315002,119.841309 
	C189.825729,119.321938 190.632431,118.733170 191.757324,118.110748 
	C191.253998,118.642029 190.432465,119.206970 189.315002,119.841309 
z"/>
<path fill="#225084" opacity="1.000000" stroke="none" 
	d="
M299.591614,215.956848 
	C299.626526,216.334427 299.401855,216.889633 298.987274,217.679779 
	C298.975586,217.321304 299.153839,216.727890 299.591614,215.956848 
z"/>
<path fill="#272E4C" opacity="1.000000" stroke="none" 
	d="
M172.694458,98.954071 
	C172.493225,99.211159 171.990601,99.494041 171.211884,99.864334 
	C171.421539,99.627785 171.907318,99.303818 172.694458,98.954071 
z"/>
<path fill="#272E4C" opacity="1.000000" stroke="none" 
	d="
M170.695435,99.957321 
	C170.490982,100.212036 169.985352,100.496445 169.201294,100.867584 
	C169.413345,100.631889 169.903809,100.309456 170.695435,99.957321 
z"/>
<path fill="#1166A4" opacity="1.000000" stroke="none" 
	d="
M344.688232,161.064941 
	C344.477905,161.350571 343.956146,161.580048 343.154572,161.866150 
	C343.375427,161.618118 343.876099,161.313461 344.688232,161.064941 
z"/>
<path fill="#1278B6" opacity="1.000000" stroke="none" 
	d="
M325.996399,127.754730 
	C325.842682,127.815376 325.604340,127.634193 325.194519,127.308182 
	C325.320038,127.278870 325.616302,127.395378 325.996399,127.754730 
z"/>
<path fill="#282D4B" opacity="1.000000" stroke="none" 
	d="
M169.241043,129.929413 
	C169.211548,129.770691 169.436920,129.547928 169.856888,129.184982 
	C169.853302,129.305176 169.668106,129.578690 169.241043,129.929413 
z"/>
<path fill="#272E4C" opacity="1.000000" stroke="none" 
	d="
M192.260315,117.943832 
	C192.265091,117.810936 192.516769,117.575966 192.971710,117.180229 
	C192.952377,117.293564 192.729797,117.567665 192.260315,117.943832 
z"/>
<path fill="#282D4B" opacity="1.000000" stroke="none" 
	d="
M167.271805,130.909485 
	C167.295578,130.775650 167.583984,130.560913 168.106567,130.209015 
	C168.072662,130.324112 167.804550,130.576370 167.271805,130.909485 
z"/>
<path fill="transparent" opacity="0" stroke="none" 
	d="
M187.473755,262.001343 
	C176.729202,256.246063 166.099731,250.664902 155.519150,244.992493 
	C147.772690,240.839508 140.090469,236.566666 132.165955,231.637360 
	C131.968079,220.136444 131.945984,209.345123 132.035263,198.554718 
	C132.050964,196.657471 132.533142,194.764099 132.799896,192.868927 
	C151.972626,203.511505 171.145370,214.154068 190.655914,224.886063 
	C196.473389,227.909348 201.953033,230.843185 207.749237,234.369644 
	C208.009003,247.327286 207.952209,259.692322 207.895416,272.057343 
	C207.895432,272.057343 208.029922,272.023285 207.705780,271.995972 
	C206.972534,272.028290 206.563400,272.087952 205.824707,272.000305 
	C201.400452,269.854645 197.305771,267.856323 193.211090,265.858032 
	C193.211090,265.858032 193.079117,265.814331 193.008759,265.629395 
	C192.633667,265.310516 192.328918,265.176544 192.024185,265.042603 
	C191.294815,264.702637 190.565460,264.362640 189.381439,263.750763 
	C188.628250,263.243591 188.329727,263.008362 188.031204,262.773102 
	C187.928162,262.536102 187.787689,262.323853 187.473755,262.001343 
z"/>
<path fill="#262D49" opacity="1.000000" stroke="none" 
	d="
M193.206909,266.229004 
	C197.305771,267.856323 201.400452,269.854645 205.815979,272.198914 
	C206.136856,272.544861 206.143021,272.942566 206.143021,272.942566 
	C199.200623,274.969849 195.612610,273.211212 193.206909,266.229004 
z"/>
<path fill="#888A99" opacity="1.000000" stroke="none" 
	d="
M208.254639,271.814026 
	C207.952209,259.692322 208.009003,247.327286 208.078979,234.496063 
	C208.378479,236.115845 208.913376,238.202286 208.909225,240.287689 
	C208.888443,250.715515 208.726303,261.143066 208.254639,271.814026 
z"/>
<path fill="#888A99" opacity="1.000000" stroke="none" 
	d="
M206.476059,272.959900 
	C206.143021,272.942566 206.136856,272.544861 206.145569,272.346252 
	C206.563400,272.087952 206.972534,272.028290 207.688843,271.928711 
	C207.600388,272.251587 207.204742,272.614410 206.476059,272.959900 
z"/>
<path fill="#262D49" opacity="1.000000" stroke="none" 
	d="
M192.181763,265.204987 
	C192.328918,265.176544 192.633667,265.310516 192.986603,265.695282 
	C192.788422,265.770721 192.556595,265.577820 192.181763,265.204987 
z"/>
<path fill="#262D49" opacity="1.000000" stroke="none" 
	d="
M188.212799,262.989594 
	C188.329727,263.008362 188.628250,263.243591 189.077026,263.723907 
	C188.949661,263.714661 188.672028,263.460388 188.212799,262.989594 
z"/>
<path fill="#242C43" opacity="1.000000" stroke="none" 
	d="
M130.838150,224.996002 
	C124.773865,222.566269 124.023018,220.349762 126.321754,214.333115 
	C127.030182,212.478897 127.131905,209.568344 126.137047,208.030731 
	C121.845695,201.398209 126.053970,195.167648 126.514175,188.794510 
	C126.546669,188.344452 128.241913,187.561096 128.301163,187.633972 
	C129.270081,188.826111 130.099884,190.131271 131.013275,192.242035 
	C130.989731,203.714066 130.913940,214.355026 130.838150,224.996002 
z"/>
<path fill="#888A99" opacity="1.000000" stroke="none" 
	d="
M130.894165,225.396271 
	C130.913940,214.355026 130.989731,203.714066 131.065216,192.615479 
	C131.554352,192.250229 132.043777,192.342575 132.666565,192.651917 
	C132.533142,194.764099 132.050964,196.657471 132.035263,198.554718 
	C131.945984,209.345123 131.968079,220.136444 131.909332,231.384613 
	C131.560989,229.826691 131.255569,227.811615 130.894165,225.396271 
z"/>
<path fill="#242C43" opacity="1.000000" stroke="none" 
	d="
M236.766815,230.107330 
	C236.965164,230.453278 236.969101,230.891861 236.969177,231.659241 
	C236.834351,231.392014 236.703384,230.796005 236.766815,230.107330 
z"/>
<path fill="#204A7E" opacity="1.000000" stroke="none" 
	d="
M280.764099,123.354019 
	C280.478455,123.625130 279.919586,123.890228 279.172363,124.055191 
	C279.486298,123.752708 279.988586,123.550354 280.764099,123.354019 
z"/>
<path fill="#242C43" opacity="1.000000" stroke="none" 
	d="
M250.974945,347.170410 
	C250.601517,346.034180 249.919296,344.462097 249.919510,342.890076 
	C249.925079,301.273529 250.001129,259.656982 250.110229,217.586517 
	C250.438004,219.411850 250.961426,221.690552 250.966583,223.970428 
	C251.025421,250.000458 251.005280,276.030670 251.008026,302.529175 
	C251.001266,317.576569 250.992706,332.155609 250.974945,347.170410 
z"/>
</svg>
